<svg width="93" height="42" viewBox="0 0 93 42" fill="none" xmlns="http://www.w3.org/2000/svg">
<path d="M12.5572 12.035C12.5248 12.0907 12.4967 12.1481 12.4731 12.2071C12.432 12.3568 12.3968 12.5082 12.3557 12.6579C12.2344 13.1138 12.1112 13.5697 11.9899 14.0342C11.9331 14.2493 11.8823 14.4661 11.8216 14.6811C11.761 14.8962 11.6925 15.1078 11.626 15.3194L11.6143 15.359C11.5282 15.7943 11.3912 16.2192 11.2817 16.6528C11.2171 16.9143 11.1389 17.1689 11.0665 17.4322C10.983 17.7384 10.9002 18.0447 10.8181 18.3509C10.7281 18.695 10.64 19.0288 10.5481 19.366C10.4659 19.6654 10.3798 19.9647 10.2996 20.2641C10.2194 20.5634 10.1373 20.9041 10.0492 21.2224C9.98859 21.4495 9.9162 21.6749 9.8536 21.9106C9.84186 21.9553 9.836 22.0018 9.82426 22.0482C9.77926 22.2203 9.73231 22.4009 9.68732 22.5764C9.62471 22.8173 9.56407 23.0599 9.49169 23.3007L9.433 23.5364C9.36062 23.81 9.30193 24.0887 9.20998 24.3571C9.09847 24.6857 9.03196 25.0212 8.93219 25.3515C8.86372 25.5838 8.8109 25.8212 8.7483 26.0552C8.717 26.1791 8.67787 26.3012 8.64461 26.4251C8.58788 26.6264 8.53506 26.8294 8.48028 27.0307C8.45485 27.1271 8.42355 27.2251 8.39812 27.3215C8.31596 27.6163 8.23575 27.9093 8.15749 28.2006C8.13793 28.2729 8.13011 28.3469 8.11054 28.4174C8.03621 28.6841 7.95991 28.9508 7.88361 29.2157C7.87217 29.2406 7.86428 29.2666 7.86014 29.2931C7.83872 29.4527 7.79941 29.6101 7.74276 29.7628C7.63712 30.1689 7.53539 30.5732 7.42584 30.9775C7.31629 31.3818 7.20282 31.7706 7.09523 32.1681C6.98763 32.5655 6.8996 32.9509 6.78809 33.3414C6.74701 33.4911 6.69614 33.6391 6.65311 33.787C6.61007 33.935 6.57094 34.0864 6.53182 34.2361C6.49269 34.3858 6.46139 34.5647 6.41639 34.7264C6.3714 34.8882 6.31075 35.0705 6.25989 35.2426C6.23641 35.3217 6.21098 35.3991 6.19533 35.4783C6.14251 35.7209 6.076 35.96 5.9997 36.1974C5.98797 36.237 5.98405 36.2766 5.97427 36.3161C5.95862 36.3884 5.94297 36.4607 5.92145 36.5329C5.85689 36.7463 5.80603 36.7807 5.55562 36.7841H0.396878C0.313481 36.7884 0.229868 36.7884 0.146472 36.7841C0.123367 36.783 0.100828 36.7774 0.0805179 36.7677C0.0602081 36.7579 0.042646 36.7443 0.029127 36.7278C0.015608 36.7113 0.00647712 36.6923 0.00240839 36.6723C-0.00166034 36.6522 -0.000563082 36.6317 0.00561883 36.6121C0.0104452 36.5856 0.0183105 36.5597 0.0290941 36.5346C0.169947 36.1372 0.308844 35.7415 0.451654 35.3441C0.535774 35.1084 0.623808 34.8727 0.705972 34.637C0.788137 34.4013 0.872257 34.1363 0.956378 33.8851C1.07767 33.5324 1.20091 33.1814 1.32025 32.8287C1.41024 32.5655 1.49436 32.3006 1.5863 32.0373C1.71542 31.6674 1.85236 31.2975 1.97756 30.9259C2.0656 30.6695 2.1458 30.4097 2.22993 30.1534L2.3473 29.8093C2.44512 29.534 2.54293 29.2605 2.63879 28.9852C2.81094 28.4845 2.98114 27.9839 3.15329 27.4832C3.31567 27.0169 3.48587 26.5507 3.64628 26.0827C3.7754 25.7111 3.89277 25.336 4.01993 24.9644C4.12166 24.6633 4.23317 24.364 4.33685 24.0629C4.55596 23.4355 4.77376 22.8046 4.99026 22.1704C5.21719 21.5114 5.44607 20.8508 5.67105 20.1901C5.81581 19.7669 5.94884 19.3402 6.09556 18.917C6.17772 18.6744 6.2775 18.4352 6.36553 18.1926C6.45356 17.95 6.54942 17.6541 6.63941 17.384L6.85656 16.7491C6.9172 16.5771 6.97981 16.3913 7.05219 16.2123C7.12457 16.0334 7.17935 15.8407 7.24782 15.6532C7.31629 15.4657 7.38671 15.2575 7.44345 15.0579C7.553 14.7138 7.67233 14.3697 7.79754 14.0256C7.90513 13.7314 7.99317 13.4355 8.10272 13.1396C8.24162 12.737 8.38638 12.3344 8.52723 11.9352L8.72286 11.3589C8.76199 11.2436 8.79916 11.1283 8.83829 11.0148C8.92632 10.7584 9.01044 10.4987 9.10043 10.2457C9.27454 9.74681 9.45061 9.24785 9.62276 8.74891C9.76361 8.33772 9.89664 7.92654 10.0394 7.51707C10.1666 7.14544 10.3055 6.77555 10.4307 6.40392C10.505 6.19403 10.5716 5.98068 10.6439 5.76906C10.7555 5.44217 10.8709 5.11528 10.9843 4.79011C11.0391 4.63011 11.0939 4.46838 11.1506 4.30837C11.2602 3.98836 11.3736 3.66836 11.4832 3.34835C11.5028 3.28986 11.5086 3.22964 11.5262 3.17631C11.5381 3.13115 11.5572 3.08771 11.583 3.04727C11.591 3.03081 11.604 3.01664 11.6206 3.00634C11.6373 2.99603 11.6568 2.99 11.6772 2.98893C11.6975 2.98786 11.7177 2.99179 11.7356 3.00027C11.7535 3.00875 11.7684 3.02144 11.7786 3.03694C11.8033 3.07065 11.8243 3.10637 11.8412 3.14361L12.3577 4.23955C12.477 4.49246 12.5924 4.7557 12.7137 5.00001C12.878 5.3441 13.0443 5.67788 13.2086 6.01682C13.2576 6.11488 13.3025 6.21467 13.3475 6.31446C13.4238 6.4865 13.4982 6.65854 13.5784 6.81854C13.8092 7.30487 14.0427 7.79233 14.2787 8.28095C14.5194 8.77989 14.7639 9.27884 15.0045 9.77778C15.118 10.0118 15.2256 10.2492 15.3371 10.4832C15.4662 10.755 15.6012 11.0251 15.7284 11.297C15.7949 11.4329 15.8516 11.5705 15.924 11.7064C16.1568 12.1933 16.4052 12.6768 16.6243 13.1688C16.8434 13.6609 17.0743 14.0927 17.2914 14.5573C17.401 14.793 17.5047 15.0304 17.6162 15.2644C17.8992 15.8643 18.1842 16.4641 18.4711 17.064C18.7058 17.5583 18.9425 18.0521 19.1812 18.5453C19.2869 18.7673 19.3984 18.9875 19.504 19.2111C19.6096 19.4348 19.6996 19.631 19.7994 19.8409C19.8659 19.9837 19.9266 20.1299 20.0048 20.2658C20.1574 20.5308 20.2709 20.8078 20.3961 21.0796C20.5917 21.4753 20.7736 21.8693 20.9634 22.265C21.0808 22.511 21.1962 22.7588 21.3155 23.0065C21.4838 23.3506 21.6559 23.7085 21.8222 24.0612C21.9337 24.2952 22.0354 24.5343 22.147 24.7683C22.3269 25.1451 22.5128 25.5201 22.6947 25.8952C22.7984 26.1103 22.8903 26.3288 22.9999 26.5438C23.1212 26.7985 23.2483 27.0497 23.3696 27.3026C23.4166 27.4006 23.4518 27.5039 23.4988 27.6019C23.6279 27.8669 23.7609 28.1301 23.89 28.3951C23.9467 28.5121 23.9996 28.6308 24.0543 28.7392C24.2656 29.1848 24.473 29.6321 24.6843 30.076C24.8349 30.3908 24.9914 30.7039 25.144 31.0171C25.2105 31.153 25.2692 31.2923 25.3396 31.4265C25.5118 31.7861 25.6898 32.1405 25.8541 32.5018C25.9617 32.7375 26.0498 32.9801 26.1476 33.221C26.2747 33.5427 26.398 33.8662 26.5232 34.1913C26.634 34.4815 26.7462 34.7735 26.8597 35.0671C26.9575 35.32 27.0553 35.5729 27.157 35.8258C27.2353 36.0219 27.3194 36.2163 27.3976 36.4108C27.4146 36.4557 27.4277 36.5017 27.4368 36.5484C27.4449 36.5761 27.4465 36.605 27.4415 36.6332C27.4366 36.6615 27.4252 36.6886 27.408 36.7129C27.3908 36.7372 27.3682 36.7581 27.3415 36.7745C27.3149 36.7909 27.2847 36.8024 27.2529 36.8082C27.2018 36.8208 27.1493 36.8283 27.0964 36.8306C27.0201 36.8306 26.9438 36.8306 26.8675 36.8306H12.4183C12.3498 36.8306 12.2794 36.8306 12.2227 36.8306C12.1582 36.8373 12.0932 36.8237 12.0391 36.7922C11.985 36.7607 11.9454 36.7133 11.9273 36.6585C11.9058 36.6069 11.8842 36.557 11.8647 36.5071C11.4878 35.5299 11.1115 34.5549 10.7359 33.5823C10.6479 33.3535 10.5579 33.1264 10.4698 32.8941C10.4634 32.8819 10.4582 32.8692 10.4542 32.8563C10.3994 32.6997 10.4542 32.6292 10.6498 32.6188C10.7339 32.6188 10.8181 32.6188 10.9002 32.6188H19.9344C20.0185 32.6188 20.1026 32.6188 20.1867 32.6188C20.3276 32.6188 20.3667 32.5621 20.3237 32.4468C20.2102 32.1474 20.0909 31.8498 19.9755 31.5521C19.8972 31.3491 19.8209 31.1461 19.7446 30.9431L19.2888 29.7387C19.2262 29.5667 19.1656 29.4084 19.0932 29.2433C19.0208 29.0781 18.9621 28.8992 18.8976 28.7271C18.8076 28.4931 18.7156 28.2591 18.6256 28.0234L18.2618 27.0514C18.1737 26.8157 18.0876 26.5799 17.9996 26.3442L17.178 24.1919C16.9823 23.6758 16.7867 23.1596 16.5911 22.6315C16.3954 22.1033 16.1998 21.5871 16.0042 21.0658C15.8418 20.6409 15.6677 20.2194 15.5053 19.7944C15.4173 19.5656 15.3391 19.335 15.2549 19.1062C15.1806 18.9083 15.1043 18.7122 15.03 18.5143C14.9341 18.2614 14.8343 17.9982 14.7443 17.7522L14.3961 16.8386C14.314 16.6218 14.2337 16.405 14.1516 16.19C13.9794 15.7392 13.8053 15.2885 13.6351 14.8377C13.4786 14.4248 13.328 14.0101 13.1715 13.5972C13.0658 13.3168 12.9524 13.0398 12.8467 12.7594C12.7822 12.5873 12.7235 12.4153 12.6511 12.2432C12.6237 12.1692 12.6002 12.1279 12.5572 12.035Z" fill="#D4DCE1"/>
<path d="M55.7853 7.52411H59.1482C59.2166 7.52411 59.2851 7.52411 59.3536 7.52411C59.3988 7.52772 59.443 7.5376 59.4847 7.55336C59.5296 7.56885 59.5668 7.60326 59.5512 7.64628C59.545 7.66112 59.5351 7.67455 59.5223 7.68557C59.5094 7.69659 59.4939 7.70493 59.4768 7.70993C59.2828 7.75378 59.1112 7.85378 58.9897 7.99382C58.8915 8.09438 58.8177 8.21145 58.7726 8.33791C58.6478 8.61974 58.5847 8.91977 58.5867 9.22222C58.5887 9.3162 58.5728 9.40984 58.5398 9.49923C58.5128 9.57561 58.4983 9.65497 58.4967 9.73494C58.4967 9.95688 58.4967 10.1771 58.4967 10.399C58.4885 10.5264 58.5091 10.6538 58.5574 10.7741C58.5752 10.8255 58.5851 10.8787 58.5867 10.9324C58.5867 10.9857 58.5867 11.0391 58.5867 11.0924C58.5838 11.4381 58.6139 11.7834 58.6767 12.1247C58.7041 12.2967 58.7354 12.4688 58.751 12.6408C58.7804 12.9694 58.8821 13.286 58.9154 13.6129C58.9325 13.7592 58.9626 13.9042 59.0054 14.0464C59.0816 14.32 59.1032 14.6022 59.201 14.8723C59.2297 14.9699 59.2487 15.0694 59.2577 15.1699C59.2815 15.3153 59.3141 15.4595 59.3555 15.6018C59.4318 15.896 59.4886 16.1936 59.5609 16.4878C59.6196 16.7218 59.692 16.9558 59.7566 17.1898C59.8211 17.4237 59.8583 17.6354 59.9326 17.8539C60.0422 18.1739 60.1009 18.5059 60.2026 18.8277C60.3161 19.189 60.4269 19.5502 60.5352 19.9115C60.6056 20.1438 60.6702 20.3778 60.7308 20.6118C60.768 20.7339 60.8032 20.8578 60.8423 20.98C60.9499 21.3069 61.0653 21.6338 61.171 21.9624C61.2453 22.1946 61.3079 22.4286 61.3803 22.6609C61.4527 22.8932 61.529 23.1116 61.6072 23.3353C61.7363 23.7052 61.8733 24.0751 61.9985 24.4467C62.0689 24.6515 62.1237 24.8614 62.1941 25.0661C62.3095 25.3982 62.4347 25.7285 62.558 26.0606C62.5659 26.0861 62.5814 26.1092 62.603 26.1276C62.6128 26.138 62.646 26.1276 62.6636 26.1276C62.6819 26.116 62.6967 26.1007 62.7067 26.0829C62.8933 25.7743 63.0177 25.4396 63.0745 25.0936C63.096 24.9353 63.1488 24.7805 63.1879 24.6222C63.227 24.4639 63.2603 24.3349 63.2955 24.1904C63.3307 24.0459 63.3718 23.8772 63.407 23.719C63.4657 23.4575 63.5068 23.1908 63.5831 22.9327C63.7024 22.5318 63.7689 22.1207 63.8824 21.7163C63.9763 21.3723 64.0428 21.0281 64.125 20.6944C64.1739 20.4982 64.2326 20.3055 64.2795 20.1094C64.3206 19.946 64.348 19.7808 64.3871 19.6156C64.4399 19.3937 64.4849 19.17 64.5495 18.9498C64.6141 18.7296 64.6551 18.5042 64.7099 18.2823C64.7764 18.0139 64.8508 17.7472 64.9153 17.4788C64.9603 17.2896 64.9936 17.0969 65.0366 16.9076C65.0797 16.7183 65.1305 16.5274 65.1775 16.3381C65.1892 16.2934 65.2029 16.2487 65.2127 16.2022C65.2342 16.1041 65.2538 16.0044 65.2753 15.9063C65.2969 15.7672 65.3276 15.6293 65.3672 15.4934C65.4298 15.3213 65.4611 15.1269 65.5042 14.9445C65.5922 14.5695 65.6763 14.1961 65.7663 13.8228C65.827 13.5613 65.8954 13.3066 65.9619 13.04C66.003 12.8834 66.0421 12.7268 66.0813 12.5686L66.1458 12.3139C66.1581 12.2828 66.166 12.2504 66.1693 12.2176C66.1782 12.0503 66.2151 11.885 66.2789 11.7272C66.3219 11.5844 66.3493 11.4382 66.3825 11.2937C66.4764 10.8945 66.5782 10.4954 66.6662 10.0893C66.721 9.86052 66.7679 9.62998 66.8247 9.40115C66.8657 9.22911 66.9166 9.05707 66.9616 8.89362C66.9792 8.82824 66.987 8.76114 67.0027 8.69748C67.0227 8.59201 67.0489 8.48749 67.0809 8.38435C67.0954 8.33834 67.1269 8.29793 67.1705 8.26955C67.2141 8.24117 67.2673 8.22647 67.3216 8.2278C67.3822 8.2278 67.4428 8.2278 67.5035 8.2278H71.0718C71.1483 8.22609 71.2248 8.22953 71.3007 8.23811C71.3199 8.23899 71.3386 8.24352 71.3556 8.25138C71.3727 8.25925 71.3875 8.27025 71.3993 8.28366C71.411 8.29707 71.4192 8.31256 71.4235 8.32905C71.4278 8.34554 71.4279 8.36266 71.4239 8.3792C71.4168 8.42575 71.4057 8.47175 71.3906 8.51683C71.2831 8.86092 71.1715 9.20503 71.0639 9.56289C70.97 9.87258 70.8768 10.1834 70.7842 10.4954C70.6766 10.8653 70.5749 11.2352 70.4634 11.6051C70.391 11.8442 70.3049 12.0799 70.2306 12.3191C70.1562 12.5582 70.0975 12.7595 70.0349 12.9798C69.9939 13.1226 69.9469 13.2654 69.9117 13.4082C69.8354 13.7092 69.7161 13.9965 69.6398 14.2993C69.5948 14.4886 69.5224 14.6727 69.4637 14.8602C69.3854 15.1114 69.3052 15.3643 69.2309 15.6155C69.184 15.7704 69.1468 15.9269 69.0979 16.0818C69.004 16.3863 68.9022 16.6874 68.8123 16.9919C68.7399 17.2242 68.6734 17.4582 68.601 17.6904C68.4777 18.0982 68.3486 18.5042 68.2254 18.912C68.1628 19.1115 68.1139 19.3146 68.0532 19.5158C67.9926 19.7171 67.9143 19.9683 67.8439 20.1937C67.7304 20.5619 67.613 20.9301 67.5015 21.2983C67.4076 21.6097 67.3196 21.9211 67.2277 22.2325C67.1964 22.3357 67.1631 22.4389 67.1318 22.5422L66.7405 23.8635C66.7375 23.8769 66.7336 23.8901 66.7288 23.9031C66.6486 24.0906 66.6036 24.2884 66.5449 24.4811C66.4784 24.7082 66.4021 24.9319 66.3336 25.1573C66.2652 25.3827 66.2065 25.5857 66.138 25.799C66.0532 26.0846 65.9685 26.3714 65.8837 26.6593C65.827 26.8313 65.7644 27.0189 65.7057 27.1978C65.6881 27.2563 65.6841 27.3182 65.6665 27.3698C65.5472 27.7518 65.4259 28.132 65.3085 28.5122C65.2498 28.6998 65.197 28.889 65.1403 29.0765C65.0914 29.2365 65.0386 29.3983 64.9877 29.5583C64.9779 29.591 64.9623 29.6219 64.9544 29.6546C64.8527 30.0744 64.7119 30.4856 64.5808 30.8985C64.4497 31.3114 64.3382 31.7278 64.215 32.1424C64.1543 32.3437 64.0878 32.5416 64.0193 32.7429C63.947 32.9751 63.8746 33.2074 63.8041 33.4311C63.7728 33.536 63.7415 33.6392 63.7122 33.7425C63.6046 34.1055 63.5009 34.4702 63.3894 34.8315C63.2701 35.2204 63.1429 35.6058 63.0216 35.9929C62.9825 36.115 62.9571 36.2423 62.9179 36.3645C62.8895 36.4542 62.8542 36.5421 62.8123 36.6277C62.8061 36.6382 62.7971 36.6471 62.786 36.6538C62.775 36.6604 62.7623 36.6647 62.749 36.666C62.7356 36.6674 62.7222 36.6658 62.7097 36.6616C62.6972 36.6573 62.6861 36.6504 62.6773 36.6415C62.6489 36.6105 62.6264 36.5756 62.6108 36.5382C62.511 36.263 62.4152 35.9877 62.3154 35.7141C62.2645 35.5748 62.2059 35.4354 62.153 35.2961C61.9476 34.7421 61.7403 34.1881 61.5368 33.6341C61.4585 33.4242 61.392 33.2108 61.3157 33.001C61.2218 32.7446 61.1201 32.4848 61.0282 32.237C60.8834 31.8499 60.7425 31.4611 60.5978 31.0723L60.1791 29.9677C60.1537 29.9041 60.1361 29.8387 60.1126 29.7751C59.9822 29.4057 59.8479 29.0358 59.7096 28.6653C59.5296 28.1733 59.3516 27.683 59.1736 27.1909C59.1521 27.1341 59.1266 27.0773 59.1051 27.0188C58.9584 26.618 58.8156 26.2154 58.6669 25.8145C58.5319 25.4515 58.3891 25.0902 58.2541 24.7272C58.1192 24.3642 57.9803 23.9753 57.8433 23.5985C57.8257 23.5469 57.8101 23.4953 57.7905 23.4437C57.5779 22.8782 57.3653 22.3122 57.1527 21.7456C57.0334 21.4204 56.918 21.0953 56.7987 20.7701C56.6265 20.3056 56.4524 19.841 56.2802 19.3765C56.1433 19.0066 56.0103 18.6367 55.8733 18.2668C55.6894 17.7713 55.4997 17.2758 55.3158 16.7803C55.216 16.5119 55.1202 16.2435 55.0243 15.9751C54.8541 15.5106 54.68 15.046 54.5078 14.5815C54.4081 14.3062 54.3122 14.031 54.2105 13.7574C54.0735 13.3875 53.9327 13.021 53.7918 12.6529C53.7488 12.5376 53.7058 12.424 53.6666 12.3088C53.5903 12.0903 53.518 11.8718 53.4397 11.655C53.3615 11.4382 53.2715 11.2249 53.1913 11.0081C53.0602 10.6502 52.933 10.2924 52.8 9.93622C52.6572 9.54739 52.5124 9.15858 52.3696 8.76975C52.2405 8.42566 52.1114 8.0695 51.9784 7.71852C51.9392 7.61185 51.9784 7.54649 52.0938 7.51724C52.1526 7.50366 52.213 7.49615 52.2738 7.49487C52.3716 7.49487 52.4694 7.49487 52.5711 7.49487L55.7853 7.52411Z" fill="#D4DCE1"/>
<path d="M55.7346 34.0762C55.7815 34.133 55.8109 34.1777 55.85 34.2173C56.0632 34.4358 56.2784 34.6526 56.4897 34.8711C56.6384 35.0225 56.7851 35.1773 56.9318 35.3304C57.1783 35.5851 57.4229 35.8466 57.6713 36.0943C57.8376 36.2664 58.0098 36.4212 58.18 36.583L58.2132 36.6122C58.2246 36.6214 58.2329 36.6331 58.2375 36.646C58.2421 36.659 58.2428 36.6728 58.2394 36.686C58.2361 36.6993 58.2288 36.7115 58.2184 36.7215C58.2079 36.7315 58.1947 36.7389 58.18 36.743C58.1009 36.7661 58.0186 36.7794 57.9354 36.7825L55.5331 36.7671H55.3688C55.315 36.7683 55.2616 36.7583 55.213 36.738C55.1644 36.7176 55.1219 36.6875 55.089 36.6501C55.0401 36.5984 54.9971 36.5434 54.9482 36.4918C54.6469 36.1718 54.3613 35.8466 54.0404 35.5369C53.7196 35.2272 53.4007 34.8728 53.0858 34.5373C52.8628 34.2999 52.6241 34.0745 52.3972 33.8491C52.2191 33.665 52.047 33.4792 51.8709 33.2934L51.239 32.6327L50.7558 32.1166C50.7359 32.0964 50.7182 32.0745 50.703 32.0512C50.6956 32.0395 50.6913 32.0264 50.6903 32.013C50.6893 31.9996 50.6917 31.9862 50.6973 31.9737C50.703 31.9612 50.7116 31.95 50.7228 31.9408C50.7339 31.9316 50.7472 31.9246 50.7617 31.9205C50.7978 31.9099 50.8352 31.9035 50.8732 31.9015C50.9495 31.9015 51.0258 31.9015 51.1021 31.9015H55.9263C56.0104 31.9015 56.0946 31.9015 56.1787 31.9015C56.2591 31.8978 56.3375 31.878 56.408 31.8438C56.4785 31.8095 56.5392 31.7616 56.5856 31.7037C56.6159 31.6655 56.6384 31.623 56.6521 31.5781C56.6695 31.5218 56.6813 31.4642 56.6873 31.406C56.7265 31.1537 56.7186 30.8974 56.6638 30.6473C56.6462 30.5821 56.6192 30.5191 56.5836 30.4598C56.5534 30.4052 56.5072 30.3585 56.4498 30.3247C56.3924 30.2909 56.3259 30.271 56.2569 30.2671C56.1963 30.2671 56.1356 30.2671 56.073 30.2671H49.9498C49.8892 30.2637 49.8285 30.2637 49.7679 30.2671C49.672 30.2671 49.6349 30.3084 49.6251 30.3961C49.6153 30.4839 49.6251 30.5441 49.6251 30.6164V36.3731C49.6251 36.447 49.6251 36.521 49.6251 36.5933C49.6153 36.7034 49.584 36.7378 49.4647 36.7653C49.3535 36.7873 49.2402 36.8 49.1262 36.8032C48.6841 36.8032 48.242 36.8032 47.7999 36.8032C47.6936 36.7994 47.5881 36.7862 47.4849 36.7636C47.4467 36.7583 47.4119 36.7412 47.3868 36.7153C47.3617 36.6894 47.3479 36.6565 47.348 36.6225C47.348 36.5692 47.348 36.5159 47.348 36.4608V28.4984C47.348 28.4589 47.348 28.4176 47.348 28.378C47.3455 28.351 47.3495 28.3238 47.3596 28.2982C47.3697 28.2726 47.3858 28.2491 47.4067 28.2292C47.4277 28.2093 47.4531 28.1935 47.4814 28.1826C47.5096 28.1718 47.5402 28.1663 47.571 28.1664C47.655 28.1621 47.7393 28.1621 47.8233 28.1664H56.1924C56.5048 28.1719 56.816 28.2036 57.1216 28.261C57.3505 28.3151 57.5652 28.408 57.7535 28.5346C58.0844 28.752 58.3525 29.0349 58.536 29.3604C58.7292 29.6798 58.8658 30.0233 58.941 30.3789C59.0137 30.7353 59.0341 31.0984 59.0016 31.4594C58.9806 31.6796 58.9321 31.8971 58.8568 32.108C58.748 32.4439 58.5796 32.7627 58.358 33.0525C58.2326 33.2128 58.0855 33.359 57.9198 33.4878C57.5684 33.7796 57.1172 33.9611 56.6364 34.004C56.4246 34.0237 56.2117 34.0341 55.9987 34.0349C55.9079 34.0226 55.815 34.0371 55.7346 34.0762Z" fill="#D4DCE1"/>
<path d="M38.8752 33.5876C38.8681 33.6065 38.8635 33.6261 38.8615 33.646C38.8615 34.5912 38.8615 35.5357 38.8615 36.4797C38.8615 36.5003 38.8615 36.521 38.8615 36.5399C38.8615 36.7119 38.8087 36.767 38.615 36.7962C38.5695 36.7997 38.5237 36.7997 38.4781 36.7962H36.9229C36.857 36.795 36.7915 36.788 36.7272 36.7756C36.6777 36.7681 36.6326 36.746 36.5995 36.7128C36.5664 36.6796 36.5473 36.6374 36.5453 36.5932C36.5453 36.5399 36.5453 36.4865 36.5453 36.4332V28.519C36.5453 28.4915 36.5453 28.464 36.5453 28.4382C36.5551 28.2472 36.6411 28.1698 36.8505 28.1577H38.4742C38.5126 28.156 38.5512 28.156 38.5896 28.1577C38.6554 28.1556 38.7196 28.1753 38.7697 28.2129C38.8197 28.2505 38.8518 28.3033 38.8596 28.3607C38.8727 28.4405 38.8779 28.5211 38.8752 28.6016C38.8752 29.4257 38.8752 30.2498 38.8752 31.0739C38.8752 31.1341 38.8752 31.1944 38.8752 31.246C38.885 31.363 38.9222 31.3939 39.0611 31.4025H43.9088C43.9998 31.418 44.094 31.4046 44.1748 31.3647C44.1811 31.3455 44.1857 31.326 44.1885 31.3062C44.1885 30.3806 44.1885 29.4555 44.1885 28.5311C44.1846 28.4847 44.1846 28.4381 44.1885 28.3917C44.1908 28.3304 44.2188 28.2719 44.2673 28.2278C44.3157 28.1836 44.3811 28.1568 44.4507 28.1526C44.4884 28.15 44.5264 28.15 44.5641 28.1526C45.0982 28.1526 45.6323 28.1526 46.1663 28.1526C46.2324 28.1533 46.2982 28.1614 46.362 28.1766C46.3994 28.1853 46.4328 28.204 46.4573 28.2303C46.4819 28.2565 46.4965 28.2889 46.4989 28.3229C46.5029 28.3762 46.5029 28.4296 46.4989 28.4829C46.4989 31.1428 46.4989 33.8032 46.4989 36.4642V36.4848C46.4989 36.7171 46.4696 36.7481 46.1859 36.7894C46.1254 36.7937 46.0645 36.7937 46.004 36.7894C45.554 36.7894 45.1041 36.7894 44.6541 36.7894C44.5329 36.7852 44.4123 36.7708 44.2942 36.7464C44.2602 36.7398 44.2297 36.7233 44.2077 36.6995C44.1856 36.6758 44.1734 36.6462 44.1729 36.6156C44.1729 36.5623 44.1729 36.5089 44.1729 36.4556C44.1729 35.6034 44.1729 34.7523 44.1729 33.9024C44.1729 33.8078 44.1885 33.7149 44.1944 33.622C44.1977 33.5946 44.1887 33.5673 44.1693 33.5457C44.1499 33.5241 44.1217 33.5101 44.0907 33.5067C44.0384 33.4989 43.9853 33.4955 43.9323 33.4964H42.287C42.2487 33.4921 42.2099 33.4921 42.1716 33.4964C41.9311 33.5304 41.6871 33.5414 41.4439 33.529H39.1315C39.0409 33.5209 38.9499 33.5416 38.8752 33.5876Z" fill="#D4DCE1"/>
<path d="M71.8897 6.96151H68.2295C68.1533 6.96494 68.0769 6.96494 68.0006 6.96151C67.9775 6.9626 67.9544 6.95928 67.9329 6.95178C67.9114 6.94429 67.892 6.9328 67.876 6.9181C67.86 6.90339 67.8479 6.88581 67.8403 6.86658C67.8328 6.84734 67.8301 6.8269 67.8324 6.80666C67.8217 6.71963 67.829 6.63161 67.8539 6.54687C67.9089 6.37298 67.9455 6.19503 67.9635 6.01524C67.9978 5.90312 68.0052 5.78591 67.985 5.67115C67.9804 5.65124 67.9839 5.63055 67.9948 5.61264C68.052 5.45338 68.0881 5.28885 68.1023 5.12231C68.1059 5.08864 68.1124 5.05528 68.1219 5.02253C68.163 4.92102 68.1708 4.81262 68.206 4.71111C68.2908 4.39963 68.3561 4.08432 68.4017 3.76657C68.4721 3.45 68.5288 3.13343 68.5816 2.81514C68.5978 2.66866 68.6279 2.52365 68.6716 2.3816C68.6819 2.34208 68.6871 2.30168 68.6873 2.26115C68.6845 2.22137 68.6878 2.18145 68.6971 2.14245C68.7614 1.92913 68.8066 1.71167 68.832 1.4921C68.8907 1.2564 68.9201 1.01725 68.9651 0.7781C68.9983 0.594009 69.0316 0.408204 69.0766 0.225834C69.1216 0.0434631 69.1881 0.0124878 69.3739 0.00388538H76.8079C76.8912 -0.00129513 76.9749 -0.00129513 77.0583 0.00388538C77.2324 0.0228106 77.3028 0.101962 77.2793 0.249923C77.2519 0.421971 77.2148 0.60778 77.1796 0.784989C77.1404 0.996608 77.1013 1.20821 77.0602 1.41811C77.0552 1.46456 77.0461 1.51059 77.0328 1.55576C77.0209 1.60293 76.9916 1.64532 76.9495 1.67642C76.9075 1.70751 76.8549 1.72557 76.8 1.72781C76.7394 1.72781 76.6787 1.72781 76.6161 1.72781H73.0107C72.8894 1.72781 72.7681 1.70716 72.6468 1.70372C72.4042 1.70372 72.1597 1.70372 71.9171 1.70372C71.7567 1.70372 71.5982 1.72781 71.4398 1.73297C71.2813 1.73814 71.1189 1.73297 70.9585 1.73297C70.9058 1.72955 70.8528 1.72955 70.8001 1.73297C70.7691 1.7358 70.7402 1.74767 70.7178 1.7667C70.6955 1.78573 70.681 1.81082 70.6768 1.83792C70.6124 2.07875 70.5712 2.32393 70.5536 2.57085C70.5536 2.63966 70.5771 2.6758 70.6534 2.68096C70.8029 2.70562 70.9558 2.71141 71.1072 2.69816C71.1822 2.68698 71.2583 2.6835 71.3341 2.68783H73.9654C74.0788 2.68783 74.1923 2.70331 74.3058 2.71019C74.4192 2.71708 74.5014 2.72397 74.6031 2.72397H76.0214C76.0898 2.72054 76.1584 2.72054 76.2268 2.72397C76.3266 2.73601 76.3892 2.78935 76.3696 2.87365C76.3614 3.04809 76.3312 3.22119 76.2797 3.38979C76.2711 3.40813 76.2645 3.42713 76.2601 3.44656C76.2229 3.64442 76.1897 3.84226 76.1525 4.04012C76.1426 4.10689 76.1276 4.173 76.1075 4.23798C76.0664 4.36185 76.0136 4.39798 75.861 4.41003C75.7867 4.41003 75.7104 4.41003 75.6341 4.41003H70.579C70.4949 4.41003 70.4108 4.41003 70.3267 4.41003C70.2425 4.41003 70.1858 4.44789 70.1702 4.53047C70.1232 4.77478 70.0782 5.01907 70.0371 5.2651C70.0319 5.28154 70.0311 5.29886 70.0349 5.31561C70.0387 5.33236 70.0469 5.34808 70.0589 5.3615C70.071 5.37491 70.0864 5.38564 70.104 5.39281C70.1217 5.39998 70.141 5.40338 70.1604 5.40274C70.2366 5.40618 70.313 5.40618 70.3893 5.40274H75.8317C75.9157 5.39845 76 5.39845 76.084 5.40274C76.1111 5.40236 76.138 5.40744 76.1625 5.41757C76.1871 5.42771 76.2087 5.44263 76.2257 5.46121C76.2426 5.4798 76.2546 5.50157 76.2605 5.52483C76.2665 5.54809 76.2664 5.57224 76.2601 5.59544C76.2425 5.74168 76.2131 5.8862 76.1877 6.03244C76.1623 6.17869 76.131 6.36278 76.0997 6.52794C76.0899 6.58816 76.0762 6.64666 76.0605 6.69999C76.0522 6.76456 76.0153 6.82365 75.9578 6.86452C75.9004 6.90539 75.827 6.92478 75.7534 6.9185C75.6849 6.9185 75.6165 6.9185 75.548 6.9185L71.8897 6.96151Z" fill="#D4DCE1"/>
<path d="M81.6202 7.16276H78.899C78.8364 7.16276 78.7757 7.16276 78.7151 7.16276C78.543 7.16276 78.498 7.11803 78.4882 6.97179C78.4862 6.93855 78.4862 6.90525 78.4882 6.87201V2.96995C78.4879 2.91232 78.4932 2.85477 78.5038 2.79791C78.5089 2.7641 78.5274 2.73296 78.556 2.70997C78.5846 2.68699 78.6216 2.67365 78.6603 2.67232C78.7053 2.67232 78.7523 2.67232 78.7973 2.67232C79.0337 2.6818 79.2707 2.67316 79.5054 2.6465C79.543 2.64054 79.5814 2.64054 79.6189 2.6465C79.7089 2.66025 79.8009 2.66025 79.8908 2.6465C79.9564 2.63947 80.023 2.64416 80.0865 2.66028C80.1355 2.6708 80.1793 2.69516 80.2111 2.72965C80.2429 2.76414 80.261 2.80687 80.2625 2.85125C80.2625 2.91663 80.2625 2.98371 80.2625 3.05081V5.14292C80.2625 5.20958 80.2664 5.2762 80.2743 5.3425C80.2772 5.36625 80.2893 5.3884 80.3085 5.4053C80.3277 5.42219 80.3529 5.43281 80.3799 5.43541C80.4331 5.44171 80.4867 5.44457 80.5403 5.444C81.7676 5.444 82.9948 5.444 84.2221 5.444C84.3285 5.44194 84.4342 5.42866 84.537 5.40444C84.6119 5.38832 84.6797 5.3531 84.7319 5.30321C84.7841 5.25331 84.8184 5.19097 84.8305 5.124C84.8584 5.02012 84.8748 4.9141 84.8794 4.80743C84.8794 4.00454 84.8794 3.20165 84.8794 2.39877C84.8768 2.29851 84.8623 2.19877 84.8363 2.10113C84.8241 2.00981 84.7755 1.92522 84.6993 1.86227C84.6231 1.79933 84.5241 1.76207 84.4197 1.75703C84.3285 1.75185 84.237 1.75185 84.1458 1.75703H78.8012C78.7178 1.76131 78.6342 1.76131 78.5508 1.75703C78.4989 1.75703 78.4491 1.73889 78.4125 1.70663C78.3758 1.67436 78.3551 1.63061 78.3551 1.58498C78.3502 1.53174 78.3502 1.47822 78.3551 1.42497C78.3551 1.08087 78.3551 0.753989 78.3551 0.420216C78.3551 0.0864436 78.453 0.0244996 78.7934 0.0262201C79.8537 0.0262201 80.914 0.0262201 81.9723 0.0262201H84.2045C84.6255 0.0266421 85.041 0.111377 85.4193 0.27398C85.5697 0.339617 85.7093 0.422956 85.8341 0.521719C86.1421 0.743667 86.3878 1.02509 86.552 1.34411C86.6166 1.47143 86.6518 1.61077 86.7144 1.73981C86.8003 1.95493 86.8336 2.18358 86.8122 2.4108V4.96398C86.8285 5.1048 86.8036 5.24695 86.7398 5.3769C86.7241 5.41467 86.7136 5.45395 86.7085 5.4939C86.5819 5.91412 86.3221 6.29404 85.9595 6.58949C85.5969 6.88494 85.1464 7.08374 84.6603 7.16276C84.5551 7.1791 84.4482 7.18602 84.3414 7.1834L81.6202 7.16276Z" fill="#D4DCE1"/>
<path d="M35.1994 28.1594C35.2835 28.1594 35.3676 28.1594 35.4518 28.1594C35.507 28.1608 35.56 28.1785 35.6023 28.2097C35.6445 28.241 35.6735 28.2839 35.6846 28.3314C35.7024 28.3822 35.7116 28.4349 35.7119 28.488C35.7119 28.9784 35.7119 29.467 35.7119 29.9573C35.7119 29.9762 35.7119 29.9969 35.7119 30.0175C35.6924 30.1896 35.6278 30.2463 35.4185 30.2532H32.0772C32.0013 30.2524 31.9255 30.2559 31.8502 30.2635C31.8233 30.2652 31.798 30.2753 31.7789 30.292C31.7599 30.3088 31.7484 30.3311 31.7465 30.3547C31.7382 30.4118 31.7343 30.4693 31.7348 30.5268C31.7348 30.9689 31.7348 31.4128 31.7348 31.855V36.3988C31.7348 36.4659 31.7348 36.533 31.7348 36.6C31.7355 36.641 31.7195 36.6809 31.6897 36.7125C31.66 36.744 31.6184 36.7651 31.5724 36.7721C31.5084 36.7868 31.4429 36.796 31.3768 36.7996H29.7766C29.6923 36.8036 29.6086 36.7857 29.5359 36.748C29.5009 36.7319 29.4723 36.7069 29.4537 36.6761C29.4352 36.6454 29.4277 36.6105 29.4322 36.576C29.444 36.3093 29.4557 36.0409 29.4557 35.7725C29.4557 34.052 29.4557 32.3316 29.4557 30.6111C29.4557 30.5388 29.4557 30.4631 29.4557 30.3909C29.4557 30.3186 29.397 30.2653 29.2894 30.267C29.0077 30.267 28.726 30.2807 28.4443 30.2859C28.4137 30.2885 28.3829 30.2885 28.3524 30.2859C28.0505 30.2478 27.7452 30.2363 27.4407 30.2515H25.7016C25.6258 30.2532 25.5499 30.2498 25.4747 30.2412C25.433 30.2356 25.3945 30.2184 25.3649 30.192C25.3353 30.1657 25.3162 30.1316 25.3103 30.0949C25.3016 30.042 25.2976 29.9885 25.2986 29.9349V28.5069C25.2976 28.4534 25.3015 28.3999 25.3103 28.3469C25.3134 28.2957 25.3394 28.2475 25.3826 28.213C25.4258 28.1786 25.4829 28.1605 25.5412 28.1628C25.6155 28.1628 25.6938 28.1628 25.7701 28.1628L35.1994 28.1594Z" fill="#D4DCE1"/>
<path d="M42.913 41.2695C42.9269 41.2287 42.9335 41.1864 42.9326 41.1439C42.8925 40.7837 42.8807 40.4216 42.8974 40.06C42.8974 39.9671 42.8974 39.8725 42.8974 39.7795C42.8982 39.7327 42.904 39.686 42.915 39.6402C42.9205 39.6168 42.9339 39.5954 42.9534 39.5788C42.973 39.5623 42.9977 39.5513 43.0245 39.5473H43.093C43.3806 39.5369 43.4471 39.5473 43.4451 39.8312C43.4451 40.4608 43.4451 41.0905 43.4451 41.7237C43.4458 41.7703 43.4425 41.8169 43.4353 41.863C43.4326 41.8969 43.4161 41.9288 43.3887 41.9528C43.3614 41.9768 43.3252 41.9914 43.2867 41.9938C43.2451 42.0005 43.2025 41.9994 43.1614 41.9909C43.1203 41.9823 43.0817 41.9663 43.048 41.9439C43.0049 41.9164 42.9678 41.8837 42.9267 41.8527L42.553 41.5585C42.3398 41.3865 42.1285 41.2144 41.9133 41.0424C41.5873 40.7831 41.2612 40.5239 40.9352 40.2647C40.9254 40.2647 40.9078 40.2647 40.8902 40.251C40.8276 40.2871 40.8491 40.3456 40.8491 40.3955C40.8491 40.8256 40.8491 41.2546 40.8491 41.6824C40.8491 41.7426 40.8491 41.8045 40.8491 41.8544C40.8497 41.8887 40.8351 41.9218 40.8085 41.9469C40.7818 41.9719 40.7452 41.9869 40.7063 41.9886C40.6685 41.9912 40.6306 41.9912 40.5928 41.9886C40.407 41.9886 40.36 41.9473 40.3503 41.7908C40.3503 41.7632 40.3503 41.7374 40.3503 41.7099V39.8139C40.3492 39.7604 40.3532 39.7069 40.362 39.6539C40.3644 39.6267 40.378 39.6011 40.4004 39.5821C40.4227 39.5631 40.4522 39.5519 40.4833 39.5507C40.5509 39.5398 40.6204 39.5433 40.6862 39.5609C40.7519 39.5786 40.8118 39.6099 40.8609 39.6522C41.1993 39.931 41.5416 40.2062 41.8918 40.4746C42.2107 40.7224 42.5374 40.9649 42.8406 41.2299C42.8634 41.2449 42.8876 41.2581 42.913 41.2695Z" fill="#D4DCE1"/>
<path d="M68.7654 41.9939C68.5365 41.9939 68.3076 41.9939 68.0788 41.9939C67.9722 41.9902 67.8662 41.9786 67.7618 41.9595C67.6865 41.9465 67.6169 41.9149 67.5615 41.8682C67.506 41.8216 67.4669 41.7619 67.4488 41.6962C67.4304 41.6402 67.4198 41.5824 67.4175 41.5242C67.4175 41.156 67.4175 40.7878 67.4175 40.4196C67.4165 40.4059 67.4165 40.3921 67.4175 40.3784C67.416 40.2763 67.4583 40.1775 67.5359 40.1017C67.6134 40.0258 67.7207 39.9784 67.8362 39.9689C67.9191 39.9581 68.0028 39.9523 68.0866 39.9517C68.5365 39.9517 68.9865 39.9517 69.4364 39.9517C69.5501 39.956 69.6633 39.968 69.7749 39.9878C69.8757 40.0109 69.9642 40.0643 70.025 40.1388C70.0857 40.2133 70.1149 40.3041 70.1074 40.3956C70.1099 40.4297 70.0978 40.4633 70.0736 40.49C70.0494 40.5168 70.0147 40.5346 69.9764 40.5401C69.9024 40.557 69.8272 40.5696 69.7514 40.5779C69.7365 40.5815 69.721 40.5822 69.7059 40.58C69.6907 40.5779 69.6762 40.5729 69.6634 40.5654C69.6506 40.5579 69.6398 40.548 69.6317 40.5366C69.6236 40.5251 69.6184 40.5122 69.6164 40.4988C69.5968 40.4489 69.5929 40.3801 69.5538 40.3543C69.4939 40.326 69.426 40.3134 69.3582 40.3181C68.9669 40.3181 68.5639 40.3181 68.1687 40.3181C68.1303 40.3164 68.0918 40.3164 68.0533 40.3181C68.0187 40.319 67.9859 40.3317 67.9618 40.3536C67.9377 40.3754 67.9242 40.4047 67.9242 40.4351C67.9233 40.4483 67.9233 40.4615 67.9242 40.4747V41.4605C67.9223 41.4806 67.9223 41.5007 67.9242 41.5208C67.9256 41.5479 67.9384 41.5736 67.96 41.593C67.9817 41.6124 68.0107 41.624 68.0416 41.6257C68.0872 41.6283 68.1329 41.6283 68.1785 41.6257H69.3523C69.589 41.6257 69.6105 41.6033 69.6105 41.3917C69.6105 41.1801 69.589 41.1526 69.3366 41.1508H68.9708C68.9252 41.1535 68.8795 41.1535 68.8339 41.1508C68.7989 41.1504 68.7656 41.1379 68.7411 41.116C68.7166 41.0941 68.7028 41.0646 68.7028 41.0339C68.6979 41.0007 68.6979 40.9672 68.7028 40.9341C68.7056 40.9104 68.7173 40.8882 68.7361 40.871C68.7549 40.8539 68.7797 40.8428 68.8065 40.8394C68.8517 40.8325 68.8975 40.829 68.9434 40.8291H69.857C69.8876 40.8274 69.9184 40.8274 69.949 40.8291C70.0585 40.8394 70.1055 40.8704 70.1074 40.965C70.1074 41.1732 70.1074 41.3814 70.1074 41.5896C70.104 41.6228 70.0968 41.6557 70.0859 41.6876C70.0751 41.7582 70.0379 41.8235 69.9802 41.8734C69.9224 41.9232 69.8474 41.9547 69.767 41.9629C69.6622 41.9791 69.5564 41.99 69.4501 41.9956C69.2232 41.9973 68.9943 41.9956 68.7654 41.9939Z" fill="#D4DCE1"/>
<path d="M50.1944 41.2109C50.1846 41.2832 50.2414 41.3021 50.2785 41.3313C50.4742 41.481 50.6698 41.629 50.8654 41.7804C50.9202 41.8234 50.9867 41.8647 50.9965 41.9335C50.9828 41.949 50.975 41.9662 50.9633 41.9679C50.6933 42.0161 50.439 42.0299 50.2277 41.8251C50.0497 41.6531 49.8462 41.4982 49.6682 41.3245C49.4902 41.1507 49.2867 41.1885 49.0813 41.2109C49.0585 41.215 49.0381 41.226 49.0238 41.2421C49.0095 41.2582 49.0021 41.2782 49.003 41.2987C49.003 41.3589 49.003 41.4191 48.9933 41.4707C48.9933 41.5911 48.9933 41.7116 48.9933 41.832C48.9933 41.9524 48.9424 41.9696 48.8407 41.9782C48.5179 42.0075 48.4905 41.9404 48.4905 41.7219C48.4905 41.2057 48.4905 40.7034 48.4905 40.1958C48.4905 39.967 48.5237 39.9377 48.7761 39.936H50.2844C50.3602 39.9364 50.4357 39.9444 50.5094 39.9601C50.5933 39.973 50.6698 40.0107 50.726 40.0671C50.7822 40.1234 50.8148 40.1949 50.8185 40.2698C50.8331 40.4766 50.8331 40.6841 50.8185 40.8909C50.8185 40.9703 50.7826 41.0464 50.7188 41.1026C50.655 41.1587 50.5684 41.1903 50.4781 41.1903C50.4194 41.1903 50.3568 41.1903 50.2962 41.1903C50.2355 41.1903 50.2257 41.2057 50.1944 41.2109ZM49.6173 40.8668H49.813C49.9127 40.8668 50.0086 40.8668 50.1103 40.8668C50.2394 40.8668 50.2825 40.8169 50.2922 40.6948C50.2981 40.6214 50.2981 40.5479 50.2922 40.4745C50.2825 40.373 50.2355 40.318 50.124 40.3163C49.7836 40.3163 49.4413 40.3163 49.0989 40.3163C49.0833 40.3158 49.0678 40.3181 49.0533 40.3231C49.0389 40.3281 49.0257 40.3357 49.0147 40.3454C49.0037 40.3551 48.995 40.3667 48.9893 40.3794C48.9836 40.3922 48.981 40.4058 48.9815 40.4195C48.9757 40.506 48.9757 40.5928 48.9815 40.6793C48.9815 40.829 49.0187 40.8513 49.1772 40.8634C49.3356 40.8754 49.4726 40.8651 49.6173 40.8651V40.8668Z" fill="#D4DCE1"/>
<path d="M60.3298 41.2351C60.5508 41.5086 60.9167 41.6497 61.1123 41.9422C61.0839 41.959 61.0538 41.9734 61.0223 41.9852C60.9848 41.9906 60.9469 41.9935 60.9089 41.9938C60.5861 42.0059 60.5763 41.9938 60.3454 41.7994C60.1791 41.6514 60.0031 41.5121 59.8466 41.3572C59.7934 41.2951 59.7225 41.2465 59.6411 41.2163C59.5597 41.1861 59.4706 41.1753 59.3829 41.1852H59.3595C59.1149 41.1852 59.0954 41.2024 59.0914 41.4106C59.0914 41.5104 59.0914 41.6102 59.0914 41.7117C59.0944 41.7581 59.0944 41.8046 59.0914 41.851C59.0899 41.8817 59.0761 41.911 59.0525 41.9336C59.0289 41.9563 58.997 41.9709 58.9623 41.9749C58.9395 41.9767 58.9166 41.9767 58.8939 41.9749C58.6474 41.9852 58.5906 41.9422 58.5906 41.7306C58.5906 41.2144 58.5906 40.6863 58.5906 40.1632C58.5906 39.9637 58.6317 39.9293 58.8586 39.9275C59.3751 39.9275 59.8935 39.9275 60.4119 39.9275C60.8032 39.9275 60.9538 40.0703 60.9636 40.4058C60.9702 40.5593 60.961 40.7131 60.9362 40.8652C60.9292 40.9511 60.8845 41.0313 60.8115 41.0888C60.7384 41.1462 60.6429 41.1765 60.545 41.1732L60.363 41.1886C60.363 41.1886 60.3572 41.2162 60.3298 41.2351ZM59.7527 40.8669H60.1185C60.1641 40.8695 60.2098 40.8695 60.2554 40.8669C60.3787 40.8531 60.4374 40.8067 60.4511 40.7035C60.4579 40.6302 60.4579 40.5565 60.4511 40.4832C60.4489 40.4492 60.4345 40.4167 60.4099 40.3904C60.3852 40.3641 60.3517 40.3454 60.3141 40.337C60.2705 40.3247 60.225 40.3183 60.1791 40.3181H59.2812C59.2584 40.3163 59.2355 40.3163 59.2127 40.3181C59.1816 40.319 59.152 40.3303 59.1302 40.3499C59.1083 40.3694 59.0958 40.3956 59.0954 40.423C59.0954 40.4953 59.0954 40.5693 59.0954 40.6432C59.0954 40.8445 59.1208 40.8635 59.3419 40.8686C59.4768 40.8686 59.6157 40.8669 59.7527 40.8669Z" fill="#D4DCE1"/>
<path d="M88.9173 41.2057C88.9645 41.2913 89.0359 41.3647 89.1247 41.4191C89.3203 41.567 89.4983 41.715 89.6822 41.8647C89.6923 41.8726 89.6997 41.8829 89.7035 41.8944C89.7073 41.9058 89.7074 41.9179 89.7037 41.9294C89.7 41.9409 89.6928 41.9512 89.6827 41.9593C89.6727 41.9673 89.6603 41.9727 89.647 41.9748C89.4981 42.0084 89.342 42.0084 89.1932 41.9748C89.1303 41.9525 89.074 41.9178 89.0288 41.8733C88.8332 41.7012 88.6513 41.5412 88.4615 41.3761L88.348 41.278C88.3188 41.2511 88.2836 41.2298 88.2445 41.2156C88.2054 41.2014 88.1634 41.1945 88.1211 41.1954H87.9392C87.769 41.1954 87.7435 41.2281 87.7299 41.3675C87.7299 41.469 87.7299 41.5688 87.7299 41.6703C87.7299 41.7236 87.7299 41.7769 87.7299 41.8303C87.7162 41.9438 87.6712 41.9782 87.5342 41.9886H87.4423C87.276 41.9886 87.231 41.9421 87.2232 41.7907C87.2232 41.6703 87.2232 41.5499 87.2232 41.4294C87.2232 41.0268 87.2232 40.6254 87.2232 40.2251C87.2232 39.9636 87.2466 39.9429 87.5518 39.9429H88.9467C89.0694 39.9409 89.1914 39.959 89.3066 39.9963C89.3644 40.0141 89.416 40.0449 89.4561 40.0856C89.4963 40.1264 89.5236 40.1756 89.5355 40.2285C89.545 40.2613 89.5516 40.2946 89.5551 40.3283C89.5551 40.5004 89.5551 40.6621 89.5551 40.8307C89.557 40.8502 89.557 40.8697 89.5551 40.8892C89.5471 40.9674 89.5073 41.0404 89.443 41.0948C89.3786 41.1492 89.294 41.1813 89.2049 41.1851C89.1149 41.1903 89.0327 41.1989 88.9173 41.2057ZM88.3539 40.8617C88.4752 40.8617 88.5965 40.8617 88.7178 40.8617C89.0327 40.8703 89.0582 40.7619 89.0503 40.5485C89.0503 40.3765 88.9838 40.3231 88.7941 40.3077C88.7556 40.3059 88.7171 40.3059 88.6786 40.3077H87.9979C87.9594 40.3059 87.9209 40.3059 87.8824 40.3077C87.7748 40.318 87.7377 40.3489 87.7318 40.4487C87.7259 40.5353 87.7259 40.622 87.7318 40.7085C87.7318 40.8186 87.7748 40.853 87.8981 40.8582C88.0213 40.8634 88.2013 40.8651 88.3539 40.8651V40.8617Z" fill="#D4DCE1"/>
<path d="M65.8153 41.3039C65.8559 41.2484 65.8707 41.1812 65.8564 41.1164C65.8564 40.8359 65.8564 40.5538 65.8564 40.2733C65.8564 40.22 65.8564 40.1649 65.8564 40.1116C65.8681 39.9912 65.9209 39.9499 66.0618 39.9396C66.1078 39.9384 66.1538 39.9425 66.1987 39.9516C66.2254 39.9558 66.2499 39.9675 66.2686 39.9848C66.2872 40.0021 66.2991 40.0243 66.3024 40.048C66.3109 40.094 66.3155 40.1406 66.3161 40.1873V41.7358C66.3161 41.7633 66.3161 41.7891 66.3161 41.8166C66.3024 41.9457 66.2359 41.9887 66.0931 41.9887C66.0087 41.9821 65.9294 41.9506 65.8681 41.8992L65.0132 41.2334L64.2072 40.614C64.1974 40.614 64.1779 40.614 64.1622 40.6054C64.1075 40.6381 64.127 40.6897 64.1251 40.7327C64.1251 41.0476 64.1251 41.3624 64.1251 41.6772C64.129 41.7374 64.129 41.7977 64.1251 41.8579C64.1245 41.892 64.1089 41.9246 64.0815 41.9487C64.0541 41.9728 64.0171 41.9865 63.9783 41.9869C63.94 41.9904 63.9013 41.9904 63.8629 41.9869C63.7338 41.9869 63.6868 41.9405 63.6673 41.8286C63.6644 41.7817 63.6644 41.7346 63.6673 41.6876V40.2406C63.6673 40.2011 63.6673 40.1598 63.6673 40.1202C63.679 39.9843 63.7338 39.9482 63.8825 39.9482C63.9904 39.9472 64.0944 39.9837 64.172 40.0497C64.352 40.1942 64.53 40.3387 64.7139 40.4798C64.8978 40.6209 65.1149 40.7878 65.3164 40.9409C65.4592 41.051 65.6021 41.1611 65.7468 41.2695C65.7685 41.2826 65.7914 41.2941 65.8153 41.3039Z" fill="#D4DCE1"/>
<path d="M91.7793 41.9954H90.9734C90.9127 41.9954 90.8521 41.9954 90.7914 41.9954C90.6604 41.9851 90.6193 41.9473 90.6075 41.8234C90.6075 41.7821 90.6075 41.7425 90.6075 41.703V40.2354C90.6036 40.1815 90.6036 40.1275 90.6075 40.0737C90.6086 40.0393 90.6249 40.0066 90.6531 39.9828C90.6813 39.959 90.7191 39.9459 90.7582 39.9464C90.8116 39.9437 90.8651 39.9437 90.9186 39.9464H92.6108C92.6486 39.9446 92.6864 39.9446 92.7242 39.9464C92.7641 39.9458 92.8033 39.955 92.8377 39.9728C92.872 39.9906 92.9001 40.0164 92.9189 40.0473C92.9377 40.0782 92.9464 40.1131 92.9442 40.1481C92.9419 40.1831 92.9288 40.2169 92.9062 40.2457C92.8844 40.2732 92.8515 40.2923 92.8142 40.299C92.7494 40.3073 92.684 40.3107 92.6186 40.3094H91.4057C91.1318 40.3094 91.1025 40.3386 91.1162 40.5761C91.1181 40.6026 91.1221 40.6291 91.1279 40.6552C91.1319 40.675 91.1429 40.6932 91.1595 40.7071C91.176 40.7211 91.1972 40.73 91.2198 40.7326C91.273 40.7395 91.3266 40.7429 91.3803 40.7429H91.928C91.9815 40.7403 92.035 40.7403 92.0884 40.7429C92.1193 40.7454 92.1481 40.7575 92.1697 40.7771C92.1912 40.7966 92.204 40.8224 92.2058 40.8496C92.2087 40.8759 92.2087 40.9024 92.2058 40.9287C92.2058 41.0423 92.1549 41.0905 92.0258 41.1008C91.8302 41.1008 91.6346 41.1008 91.4389 41.1008C91.3738 41.0976 91.3085 41.0976 91.2433 41.1008C91.2159 41.1016 91.1899 41.1114 91.1703 41.1283C91.1508 41.1452 91.1391 41.1679 91.1377 41.192C91.1377 41.2986 91.1377 41.407 91.1377 41.5137C91.1392 41.5374 91.151 41.5598 91.1706 41.5761C91.1903 41.5924 91.2163 41.6015 91.2433 41.6014C91.3118 41.6014 91.3803 41.6014 91.4389 41.6014H92.7653C92.8054 41.5968 92.8463 41.6025 92.8827 41.618C92.9192 41.6335 92.9497 41.658 92.9705 41.6885C92.9913 41.7191 93.0015 41.7543 92.9998 41.7899C92.9981 41.8255 92.9846 41.8599 92.9609 41.8888C92.9492 41.9053 92.9338 41.9196 92.9156 41.9308C92.8975 41.9421 92.877 41.95 92.8553 41.9541C92.7876 41.965 92.7187 41.9691 92.6499 41.9662L91.7793 41.9954Z" fill="#D4DCE1"/>
<path d="M73.4996 40.7585C73.4996 40.4437 73.4996 40.1288 73.4996 39.814C73.4996 39.5628 73.529 39.537 73.8126 39.537H75.9098C75.9554 39.5344 76.0011 39.5344 76.0467 39.537C76.0816 39.5365 76.1152 39.5478 76.1408 39.5687C76.1663 39.5895 76.1817 39.6182 76.1837 39.6488C76.1905 39.6951 76.1905 39.7419 76.1837 39.7881C76.1827 39.8154 76.1701 39.8414 76.1484 39.8608C76.1266 39.8803 76.0973 39.8918 76.0663 39.8931C75.9979 39.8974 75.9293 39.8974 75.8609 39.8931H74.3761C74.3076 39.8897 74.2391 39.8897 74.1706 39.8931C74.1552 39.8928 74.1399 39.8954 74.1257 39.9005C74.1114 39.9056 74.0985 39.9133 74.0877 39.9229C74.0769 39.9326 74.0685 39.9441 74.0629 39.9567C74.0573 39.9693 74.0547 39.9828 74.0552 39.9963C74.0552 40.1563 74.0552 40.3181 74.0552 40.4781C74.0538 40.4934 74.0562 40.5088 74.062 40.5233C74.0677 40.5377 74.0769 40.551 74.0889 40.5622C74.1009 40.5734 74.1154 40.5822 74.1315 40.5882C74.1476 40.5941 74.1649 40.5971 74.1824 40.5968C74.243 40.6002 74.3037 40.6002 74.3643 40.5968C74.5932 40.5968 74.8221 40.5968 75.049 40.5968C75.2447 40.5968 75.2896 40.6467 75.2779 40.817C75.2779 40.9495 75.2251 40.989 75.0647 40.989C74.8358 40.989 74.6069 40.989 74.38 40.989C74.3116 40.9856 74.243 40.9856 74.1746 40.989C74.1436 40.9903 74.1143 41.0019 74.0925 41.0213C74.0707 41.0408 74.0581 41.0667 74.0572 41.094C74.0533 41.1473 74.0533 41.2007 74.0572 41.254C74.0572 41.426 74.0572 41.5895 74.0572 41.7564C74.0572 41.9233 74.0063 41.9284 73.8518 41.9439C73.5583 41.956 73.5055 41.9215 73.5075 41.6755C73.5016 41.402 73.4996 41.0802 73.4996 40.7585Z" fill="#D4DCE1"/>
<path d="M54.8797 40.8617C54.8797 40.6346 54.8797 40.4058 54.8797 40.1735C54.8797 39.9722 54.9423 39.9292 55.1711 39.9395C55.3276 39.9395 55.3766 39.986 55.3824 40.1219C55.3883 40.2578 55.3824 40.3903 55.3824 40.5245C55.3824 40.7981 55.3824 41.0733 55.3824 41.3469C55.3824 41.3882 55.3824 41.4278 55.3824 41.4673C55.3824 41.5809 55.4235 41.6101 55.5448 41.6204H56.7381C56.7609 41.6221 56.7838 41.6221 56.8066 41.6204C56.8374 41.62 56.8669 41.6093 56.8891 41.5905C56.9113 41.5716 56.9245 41.546 56.9259 41.5189C56.9298 41.4588 56.9298 41.3985 56.9259 41.3383C56.9259 40.9839 56.9259 40.6289 56.9259 40.2733C56.9259 40.22 56.9259 40.1666 56.9259 40.1133C56.9377 39.9894 56.9846 39.9516 57.1216 39.9413C57.1671 39.937 57.213 39.937 57.2585 39.9413C57.2796 39.941 57.3004 39.9445 57.3199 39.9515C57.3394 39.9586 57.3571 39.969 57.3719 39.9822C57.3867 39.9953 57.3983 40.011 57.406 40.0282C57.4138 40.0454 57.4175 40.0638 57.417 40.0824C57.4199 40.1225 57.4199 40.1627 57.417 40.2028V41.4484C57.419 41.5552 57.3985 41.6614 57.3563 41.7615C57.3406 41.8033 57.3132 41.8409 57.2766 41.871C57.24 41.9011 57.1955 41.9226 57.147 41.9336C57.0298 41.9604 56.9099 41.9771 56.789 41.9835C56.3547 41.9835 55.9204 41.9835 55.4861 41.9835C55.38 41.9792 55.2746 41.9666 55.1711 41.9456C55.1026 41.9363 55.0388 41.909 54.9882 41.8672C54.9375 41.8255 54.9024 41.7712 54.8875 41.7116C54.8664 41.6408 54.8553 41.568 54.8542 41.4949C54.8777 41.2901 54.8797 41.0751 54.8797 40.8617Z" fill="#D4DCE1"/>
<path d="M44.7676 40.86C44.7676 40.6329 44.7676 40.4058 44.7676 40.1718C44.7676 39.9825 44.8165 39.9327 45.063 39.9413C45.2176 39.9413 45.2587 39.986 45.2723 40.1236C45.2723 40.177 45.2723 40.2303 45.2723 40.2836V41.3297C45.2723 41.383 45.2723 41.4363 45.2723 41.4897C45.2821 41.5774 45.3173 41.6084 45.4132 41.6187C45.4438 41.6204 45.4745 41.6204 45.5051 41.6187H46.5792C46.7885 41.6187 46.8139 41.5964 46.8159 41.4088C46.8159 41.0269 46.8159 40.6449 46.8159 40.2647C46.8159 40.2045 46.8159 40.1425 46.8159 40.084C46.8256 39.9843 46.8628 39.9464 46.9685 39.9395C47.2893 39.9189 47.3245 39.9688 47.3225 40.2182C47.3225 40.6122 47.3225 41.0079 47.3225 41.4019C47.321 41.5023 47.3066 41.6021 47.2795 41.6996C47.2645 41.7626 47.2279 41.82 47.1748 41.8643C47.1217 41.9085 47.0545 41.9375 46.9821 41.9473C46.878 41.9678 46.7719 41.9799 46.6652 41.9835C46.2388 41.9835 45.8123 41.9835 45.3858 41.9835C45.2645 41.979 45.1443 41.9617 45.0278 41.9319C44.9567 41.9161 44.8932 41.8807 44.8468 41.8308C44.8003 41.7809 44.7732 41.7192 44.7696 41.6548C44.7696 41.6015 44.7696 41.5482 44.7598 41.4948L44.7676 40.86Z" fill="#D4DCE1"/>
<path d="M79.3588 40.8739C79.3588 41.0752 79.3588 41.2765 79.3588 41.476C79.3578 41.5434 79.3519 41.6106 79.3412 41.6773C79.3341 41.7448 79.3019 41.8084 79.2495 41.8582C79.1972 41.908 79.1276 41.9412 79.0516 41.9526C78.9484 41.9752 78.8429 41.9884 78.7367 41.9922C78.3102 41.9922 77.8837 41.9922 77.4572 41.9922C77.3433 41.9883 77.23 41.9751 77.1188 41.9526C77.0546 41.9418 76.9951 41.9152 76.9473 41.876C76.8996 41.8367 76.8654 41.7863 76.8488 41.7307C76.8176 41.6485 76.8004 41.5627 76.798 41.476C76.798 41.0413 76.798 40.606 76.798 40.1702C76.798 39.9792 76.8527 39.9396 77.0758 39.9448C77.1139 39.9447 77.1519 39.9482 77.1892 39.9551C77.2159 39.9581 77.2406 39.9689 77.2594 39.9857C77.2782 40.0026 77.29 40.0245 77.2929 40.048C77.3001 40.108 77.3033 40.1684 77.3027 40.2287C77.3027 40.5969 77.3027 40.965 77.3027 41.3332C77.3027 41.6274 77.3027 41.6274 77.6274 41.6274C77.9522 41.6274 78.2808 41.6274 78.6056 41.6274C78.8169 41.6274 78.8443 41.6033 78.8462 41.4192C78.8462 41.0321 78.8462 40.6433 78.8462 40.2545C78.8426 40.1972 78.8426 40.1398 78.8462 40.0825C78.8478 40.0519 78.8617 40.0229 78.8853 40.0005C78.909 39.9782 78.9408 39.9639 78.9753 39.9603C78.9981 39.9577 79.0211 39.9577 79.0438 39.9603C79.3079 39.95 79.347 40.0067 79.3451 40.2063C79.3568 40.4197 79.3588 40.6468 79.3588 40.8739Z" fill="#D4DCE1"/>
<path d="M86.0376 40.867C86.0376 41.082 86.0376 41.2954 86.0376 41.5104C86.0376 41.8373 85.9281 41.9388 85.5622 41.9853C85.5019 41.9916 85.4411 41.9944 85.3803 41.9939C84.9753 41.9939 84.5723 41.9939 84.1693 41.9939C84.0475 41.991 83.9263 41.9777 83.8074 41.9543C83.7392 41.9441 83.676 41.9165 83.6255 41.8749C83.5751 41.8333 83.5397 41.7795 83.5238 41.7203C83.4955 41.63 83.4797 41.537 83.4768 41.4433C83.4768 41.0281 83.4768 40.6135 83.4768 40.1994C83.4768 39.9792 83.5316 39.9379 83.7722 39.9465C83.9365 39.9465 83.9678 39.9826 83.9835 40.1186C83.9835 40.1839 83.9835 40.251 83.9835 40.3181C83.9835 40.6726 83.9835 41.0287 83.9835 41.3831C83.9835 41.6085 84.0011 41.624 84.2535 41.624H85.259C85.304 41.624 85.3509 41.624 85.3959 41.624C85.4132 41.624 85.4304 41.6209 85.4463 41.615C85.4622 41.6091 85.4766 41.6004 85.4887 41.5895C85.5007 41.5786 85.5101 41.5657 85.5164 41.5515C85.5226 41.5373 85.5256 41.5222 85.5251 41.507C85.5251 41.4468 85.5251 41.3865 85.5251 41.3349V40.2906C85.5251 40.2631 85.5251 40.2373 85.5251 40.2097C85.5251 39.9775 85.6424 39.9035 85.9046 39.9637C85.9349 39.9687 85.9627 39.982 85.9838 40.0018C86.0049 40.0216 86.0183 40.0469 86.022 40.0738C86.0258 40.1271 86.0258 40.1805 86.022 40.2338V40.8756L86.0376 40.867Z" fill="#D4DCE1"/>
<path d="M52.849 39.943H53.7841C53.8369 39.943 53.8917 39.943 53.9445 39.943C53.9842 39.944 54.0229 39.9545 54.0563 39.9733C54.0898 39.9921 54.1168 40.0186 54.1345 40.0499C54.1522 40.0811 54.1599 40.1161 54.1567 40.1509C54.1536 40.1857 54.1398 40.2191 54.1167 40.2476C54.0935 40.273 54.061 40.2907 54.0247 40.2975C53.9645 40.3046 53.9036 40.3075 53.8428 40.306H53.3635C53.3166 40.306 53.2716 40.306 53.2266 40.306C53.1954 40.3065 53.1656 40.3175 53.1434 40.3367C53.1212 40.3559 53.1082 40.3819 53.1072 40.4093C53.0995 40.4664 53.0962 40.5238 53.0975 40.5813V41.6446C53.0975 41.6979 53.0975 41.7512 53.0975 41.8046C53.0857 41.9285 53.0388 41.9766 52.9018 41.9766C52.6279 41.9887 52.6006 41.9233 52.6006 41.7306C52.6006 41.3487 52.6006 40.9684 52.6006 40.5865C52.6041 40.5292 52.6041 40.4717 52.6006 40.4144C52.6006 40.3872 52.5885 40.361 52.567 40.3414C52.5455 40.3218 52.5161 40.3104 52.4851 40.3095C52.4088 40.3095 52.3325 40.3095 52.2562 40.3095C52.09 40.3095 51.9217 40.3095 51.7554 40.3095C51.5891 40.3095 51.5598 40.2613 51.5598 40.122C51.5578 40.1019 51.5578 40.0818 51.5598 40.0617C51.5616 40.0345 51.5744 40.0088 51.5959 39.9892C51.6175 39.9696 51.6463 39.9575 51.6772 39.9551C51.7377 39.9508 51.7986 39.9508 51.8591 39.9551L52.849 39.943Z" fill="#D4DCE1"/>
<path d="M81.454 39.943H82.4126C82.4738 39.9395 82.5352 39.9395 82.5965 39.943C82.6352 39.9452 82.6714 39.9606 82.6974 39.986C82.7233 40.0114 82.737 40.0448 82.7354 40.0789C82.7393 40.1121 82.7393 40.1455 82.7354 40.1787C82.7349 40.2093 82.721 40.2385 82.6965 40.2603C82.6721 40.2821 82.6391 40.2948 82.6043 40.2957C82.5358 40.2957 82.4673 40.2957 82.3989 40.2957C82.215 40.2957 82.033 40.2957 81.8492 40.2957C81.7396 40.2957 81.7024 40.3352 81.6946 40.4333C81.6946 40.4866 81.6946 40.54 81.6946 40.5933C81.6946 40.9546 81.6946 41.3176 81.6946 41.6789C81.6942 41.7364 81.6903 41.7938 81.6829 41.851C81.6785 41.8779 81.6643 41.9029 81.6425 41.9221C81.6206 41.9413 81.5922 41.9538 81.5616 41.9576C81.2975 42.0127 81.1899 41.9404 81.1899 41.703C81.1899 41.3211 81.1899 40.9391 81.1899 40.5572C81.1899 40.2922 81.1801 40.2836 80.8847 40.2819H80.4054C80.3521 40.2842 80.2987 40.2796 80.2469 40.2681C80.2289 40.2638 80.2122 40.2562 80.1977 40.2458C80.1832 40.2354 80.1713 40.2225 80.1628 40.2079C80.144 40.1748 80.1343 40.1383 80.1343 40.1013C80.1343 40.0642 80.144 40.0277 80.1628 39.9946C80.1873 39.9618 80.2251 39.9384 80.2685 39.9292C80.3329 39.9188 80.3986 39.9147 80.4641 39.9172L81.454 39.943Z" fill="#D4DCE1"/>
<path d="M62.521 40.9701V41.6325C62.521 41.672 62.521 41.7116 62.521 41.7529C62.521 41.8303 62.5367 41.925 62.4369 41.9663C62.3852 41.9875 62.3287 41.9985 62.2716 41.9985C62.2145 41.9985 62.1581 41.9875 62.1063 41.9663C62.0873 41.9568 62.0707 41.944 62.0575 41.9286C62.0444 41.9132 62.035 41.8955 62.03 41.8768C62.018 41.8242 62.0127 41.7705 62.0144 41.7168V40.2148C62.0115 40.1747 62.0115 40.1345 62.0144 40.0944C62.0281 39.9946 62.0731 39.9567 62.1904 39.9447H62.2159C62.4624 39.9344 62.5191 39.9791 62.5191 40.1873C62.5191 40.4488 62.5191 40.7034 62.5191 40.9684L62.521 40.9701Z" fill="#D4DCE1"/>
</svg>
