<svg width="80" height="38" viewBox="0 0 80 38" fill="none" xmlns="http://www.w3.org/2000/svg">
<path d="M38.4949 37.378C38.5064 37.3433 38.5119 37.3073 38.5111 37.2711C38.4779 36.9647 38.4681 36.6566 38.4819 36.349C38.4819 36.2699 38.4819 36.1894 38.4819 36.1104C38.4826 36.0705 38.4875 36.0308 38.4965 35.9918C38.5011 35.9719 38.5122 35.9537 38.5284 35.9396C38.5446 35.9255 38.5651 35.9162 38.5873 35.9127H38.644C38.8823 35.904 38.9375 35.9128 38.9358 36.1543C38.9358 36.69 38.9358 37.2258 38.9358 37.7644C38.9364 37.8041 38.9337 37.8437 38.9277 37.883C38.9255 37.9118 38.9118 37.9389 38.8891 37.9594C38.8665 37.9798 38.8365 37.9922 38.8045 37.9942C38.7701 37.9999 38.7348 37.999 38.7007 37.9917C38.6667 37.9844 38.6347 37.9708 38.6067 37.9518C38.5711 37.9284 38.5403 37.9005 38.5062 37.8742L38.1966 37.6239C38.0199 37.4775 37.8448 37.3311 37.6665 37.1848C37.3963 36.9642 37.1261 36.7437 36.8559 36.5231C36.8478 36.5231 36.8332 36.5232 36.8187 36.5114C36.7668 36.5422 36.7846 36.5919 36.7846 36.6344C36.7846 37.0003 36.7846 37.3653 36.7846 37.7293C36.7846 37.7805 36.7846 37.8332 36.7846 37.8757C36.7851 37.9048 36.773 37.933 36.7509 37.9543C36.7289 37.9756 36.6985 37.9883 36.6663 37.9898C36.635 37.992 36.6035 37.992 36.5722 37.9898C36.4182 37.9898 36.3793 37.9547 36.3712 37.8215C36.3712 37.7981 36.3712 37.7761 36.3712 37.7527V36.1396C36.3704 36.0941 36.3736 36.0486 36.381 36.0035C36.3829 35.9803 36.3942 35.9586 36.4127 35.9424C36.4313 35.9262 36.4557 35.9167 36.4815 35.9157C36.5375 35.9064 36.5951 35.9094 36.6496 35.9244C36.704 35.9394 36.7537 35.9661 36.7943 36.0021C37.0748 36.2392 37.3585 36.4734 37.6487 36.7017C37.9129 36.9125 38.1836 37.1189 38.4349 37.3443C38.4538 37.3571 38.4739 37.3683 38.4949 37.378Z" fill="#DFDFE0"/>
<path d="M59.918 37.9943C59.7283 37.9943 59.5387 37.9943 59.349 37.9943C59.2607 37.9912 59.1729 37.9813 59.0864 37.965C59.0239 37.954 58.9663 37.9271 58.9203 37.8874C58.8744 37.8477 58.842 37.7969 58.827 37.7411C58.8117 37.6934 58.803 37.6443 58.8011 37.5947C58.8011 37.2814 58.8011 36.9682 58.8011 36.655C58.8003 36.6433 58.8003 36.6315 58.8011 36.6198C58.7998 36.533 58.8348 36.449 58.8991 36.3844C58.9634 36.3199 59.0523 36.2795 59.148 36.2715C59.2167 36.2623 59.286 36.2574 59.3555 36.2568C59.7283 36.2568 60.1012 36.2568 60.4741 36.2568C60.5683 36.2605 60.6621 36.2707 60.7545 36.2876C60.8381 36.3072 60.9114 36.3526 60.9618 36.416C61.0121 36.4794 61.0363 36.5567 61.0301 36.6345C61.0321 36.6635 61.0221 36.6921 61.0021 36.7149C60.982 36.7376 60.9533 36.7528 60.9215 36.7574C60.8602 36.7718 60.7979 36.7826 60.7351 36.7896C60.7228 36.7926 60.7099 36.7933 60.6973 36.7914C60.6848 36.7896 60.6728 36.7853 60.6622 36.7789C60.6516 36.7726 60.6426 36.7642 60.6359 36.7544C60.6292 36.7447 60.6248 36.7337 60.6232 36.7223C60.607 36.6798 60.6038 36.6213 60.5713 36.5993C60.5217 36.5752 60.4654 36.5646 60.4092 36.5686C60.085 36.5686 59.751 36.5686 59.4236 36.5686C59.3917 36.5671 59.3598 36.5671 59.3279 36.5686C59.2993 36.5694 59.272 36.5802 59.2521 36.5988C59.2321 36.6174 59.2209 36.6422 59.2209 36.6681C59.2202 36.6793 59.2202 36.6906 59.2209 36.7018V37.5405C59.2193 37.5576 59.2193 37.5747 59.2209 37.5918C59.2221 37.6149 59.2327 37.6368 59.2506 37.6532C59.2686 37.6697 59.2926 37.6796 59.3182 37.6811C59.356 37.6833 59.3939 37.6833 59.4317 37.6811H60.4044C60.6005 37.6811 60.6183 37.662 60.6183 37.482C60.6183 37.302 60.6005 37.2785 60.3914 37.2771H60.0882C60.0504 37.2793 60.0125 37.2793 59.9748 37.2771C59.9458 37.2767 59.9182 37.266 59.8979 37.2474C59.8775 37.2288 59.8661 37.2037 59.8661 37.1775C59.8621 37.1493 59.8621 37.1208 59.8661 37.0926C59.8685 37.0725 59.8782 37.0536 59.8937 37.039C59.9093 37.0244 59.9298 37.0149 59.9521 37.0121C59.9895 37.0062 60.0275 37.0033 60.0655 37.0033H60.8226C60.848 37.0019 60.8734 37.0019 60.8988 37.0033C60.9896 37.0121 61.0285 37.0385 61.0301 37.119C61.0301 37.2961 61.0301 37.4732 61.0301 37.6503C61.0273 37.6786 61.0213 37.7066 61.0123 37.7338C61.0033 37.7938 60.9725 37.8494 60.9247 37.8918C60.8768 37.9342 60.8146 37.961 60.748 37.968C60.6611 37.9817 60.5735 37.991 60.4854 37.9958C60.2974 37.9972 60.1077 37.9958 59.918 37.9943Z" fill="#DFDFE0"/>
<path d="M44.5288 37.3282C44.5207 37.3896 44.5677 37.4057 44.5985 37.4306C44.7606 37.558 44.9227 37.6839 45.0848 37.8127C45.1302 37.8493 45.1853 37.8844 45.1935 37.9429C45.1821 37.9561 45.1756 37.9708 45.1659 37.9722C44.9422 38.0132 44.7314 38.0249 44.5563 37.8507C44.4088 37.7043 44.2402 37.5726 44.0927 37.4248C43.9452 37.2769 43.7766 37.3091 43.6064 37.3282C43.5875 37.3316 43.5706 37.341 43.5587 37.3547C43.5469 37.3684 43.5408 37.3854 43.5415 37.4028C43.5415 37.454 43.5415 37.5053 43.5334 37.5492C43.5334 37.6517 43.5334 37.7541 43.5334 37.8566C43.5334 37.959 43.4913 37.9737 43.407 37.981C43.1395 38.0059 43.1168 37.9488 43.1168 37.7629C43.1168 37.3238 43.1168 36.8963 43.1168 36.4645C43.1168 36.2699 43.1443 36.245 43.3535 36.2435H44.6034C44.6662 36.2438 44.7287 36.2507 44.7898 36.264C44.8594 36.275 44.9227 36.3071 44.9693 36.355C45.0159 36.4029 45.0429 36.4638 45.0459 36.5275C45.0581 36.7035 45.0581 36.8799 45.0459 37.0559C45.0459 37.1235 45.0162 37.1882 44.9633 37.236C44.9104 37.2838 44.8387 37.3106 44.7639 37.3106C44.7152 37.3106 44.6633 37.3106 44.6131 37.3106C44.5628 37.3106 44.5547 37.3238 44.5288 37.3282ZM44.0506 37.0354H44.2127C44.2954 37.0354 44.3748 37.0354 44.4591 37.0354C44.5661 37.0354 44.6017 36.993 44.6098 36.889C44.6147 36.8267 44.6147 36.764 44.6098 36.7017C44.6017 36.6153 44.5628 36.5685 44.4704 36.567C44.1884 36.567 43.9047 36.567 43.621 36.567C43.6081 36.5666 43.5952 36.5686 43.5832 36.5728C43.5712 36.5771 43.5603 36.5836 43.5512 36.5918C43.5421 36.6 43.5349 36.6099 43.5302 36.6207C43.5254 36.6316 43.5232 36.6432 43.5237 36.6548C43.5188 36.7284 43.5188 36.8023 43.5237 36.8759C43.5237 37.0032 43.5545 37.0222 43.6858 37.0325C43.8171 37.0427 43.9306 37.0339 44.0506 37.0339V37.0354Z" fill="#DFDFE0"/>
<path d="M52.9277 37.3487C53.1108 37.5815 53.414 37.7015 53.5761 37.9503C53.5526 37.9647 53.5276 37.9769 53.5015 37.9869C53.4705 37.9915 53.439 37.994 53.4075 37.9943C53.14 38.0045 53.1319 37.9943 52.9406 37.8289C52.8028 37.703 52.6569 37.5844 52.5272 37.4527C52.4832 37.3998 52.4245 37.3585 52.357 37.3327C52.2895 37.307 52.2157 37.2979 52.143 37.3063H52.1236C51.9209 37.3063 51.9047 37.3209 51.9015 37.498C51.9015 37.5829 51.9015 37.6678 51.9015 37.7542C51.9039 37.7937 51.9039 37.8333 51.9015 37.8728C51.9002 37.8989 51.8888 37.9238 51.8692 37.943C51.8497 37.9623 51.8232 37.9747 51.7945 37.9782C51.7756 37.9797 51.7566 37.9797 51.7377 37.9782C51.5335 37.9869 51.4865 37.9503 51.4865 37.7703C51.4865 37.3312 51.4865 36.8818 51.4865 36.4368C51.4865 36.267 51.5205 36.2377 51.7086 36.2363C52.1365 36.2363 52.5661 36.2363 52.9957 36.2363C53.32 36.2363 53.4448 36.3578 53.4529 36.6432C53.4583 36.7738 53.4507 36.9046 53.4302 37.034C53.4244 37.1071 53.3873 37.1754 53.3268 37.2242C53.2663 37.2731 53.1871 37.2989 53.106 37.296L52.9552 37.3092C52.9552 37.3092 52.9504 37.3326 52.9277 37.3487ZM52.4494 37.0355H52.7526C52.7904 37.0377 52.8283 37.0377 52.8661 37.0355C52.9682 37.0238 53.0168 36.9843 53.0282 36.8964C53.0338 36.8341 53.0338 36.7714 53.0282 36.7091C53.0264 36.6801 53.0144 36.6524 52.994 36.6301C52.9736 36.6077 52.9458 36.5918 52.9147 36.5847C52.8785 36.5742 52.8408 36.5688 52.8028 36.5686H52.0587C52.0399 36.5671 52.0209 36.5671 52.002 36.5686C51.9762 36.5693 51.9517 36.579 51.9336 36.5956C51.9155 36.6122 51.9051 36.6345 51.9047 36.6578C51.9047 36.7193 51.9047 36.7822 51.9047 36.8452C51.9047 37.0165 51.9258 37.0326 52.109 37.037C52.2208 37.037 52.3359 37.0355 52.4494 37.0355Z" fill="#DFDFE0"/>
<path d="M76.6173 37.3238C76.6564 37.3966 76.7156 37.459 76.7891 37.5053C76.9512 37.6312 77.0988 37.7571 77.2512 37.8844C77.2595 37.8912 77.2656 37.8999 77.2688 37.9096C77.2719 37.9194 77.272 37.9297 77.2689 37.9395C77.2659 37.9492 77.2599 37.958 77.2516 37.9649C77.2433 37.9717 77.233 37.9763 77.222 37.9781C77.0986 38.0067 76.9692 38.0067 76.8459 37.9781C76.7938 37.9591 76.7472 37.9296 76.7097 37.8917C76.5476 37.7453 76.3968 37.6092 76.2396 37.4687L76.1455 37.3853C76.1214 37.3624 76.0921 37.3443 76.0598 37.3322C76.0274 37.3201 75.9925 37.3142 75.9575 37.315H75.8067C75.6657 37.315 75.6446 37.3428 75.6333 37.4614C75.6333 37.5477 75.6333 37.6326 75.6333 37.719C75.6333 37.7644 75.6333 37.8097 75.6333 37.8551C75.6219 37.9517 75.5846 37.981 75.4712 37.9898H75.395C75.2572 37.9898 75.2199 37.9503 75.2134 37.8215C75.2134 37.719 75.2134 37.6165 75.2134 37.5141C75.2134 37.1715 75.2134 36.83 75.2134 36.4894C75.2134 36.2669 75.2329 36.2494 75.4858 36.2494H76.6416C76.7433 36.2476 76.8444 36.263 76.9399 36.2948C76.9878 36.3099 77.0305 36.3361 77.0638 36.3708C77.0971 36.4055 77.1197 36.4474 77.1296 36.4924C77.1375 36.5202 77.1429 36.5486 77.1458 36.5773C77.1458 36.7236 77.1458 36.8612 77.1458 37.0047C77.1473 37.0212 77.1473 37.0379 77.1458 37.0544C77.1392 37.121 77.1062 37.1831 77.0529 37.2294C76.9996 37.2756 76.9295 37.3029 76.8556 37.3062C76.781 37.3106 76.7129 37.3179 76.6173 37.3238ZM76.1504 37.031C76.2509 37.031 76.3514 37.031 76.4519 37.031C76.7129 37.0383 76.734 36.9461 76.7275 36.7646C76.7275 36.6182 76.6724 36.5729 76.5152 36.5597C76.4833 36.5582 76.4514 36.5582 76.4195 36.5597H75.8554C75.8235 36.5582 75.7916 36.5582 75.7597 36.5597C75.6706 36.5685 75.6398 36.5948 75.6349 36.6797C75.63 36.7533 75.63 36.8271 75.6349 36.9007C75.6349 36.9944 75.6706 37.0237 75.7727 37.0281C75.8748 37.0325 76.024 37.0339 76.1504 37.0339V37.031Z" fill="#DFDFE0"/>
<path d="M57.4733 37.4073C57.507 37.3601 57.5192 37.3029 57.5074 37.2477C57.5074 37.0091 57.5074 36.7691 57.5074 36.5305C57.5074 36.4851 57.5074 36.4383 57.5074 36.3929C57.5171 36.2904 57.5609 36.2553 57.6776 36.2465C57.7158 36.2456 57.7539 36.249 57.7911 36.2568C57.8132 36.2604 57.8335 36.2703 57.849 36.285C57.8644 36.2997 57.8742 36.3186 57.877 36.3387C57.8841 36.3779 57.8879 36.4176 57.8883 36.4573V37.7747C57.8883 37.7981 57.8883 37.8201 57.8883 37.8435C57.877 37.9533 57.8219 37.9899 57.7035 37.9899C57.6336 37.9843 57.5679 37.9575 57.5171 37.9138L56.8087 37.3473L56.1408 36.8203C56.1327 36.8203 56.1165 36.8203 56.1035 36.813C56.0581 36.8408 56.0743 36.8847 56.0727 36.9213C56.0727 37.1892 56.0727 37.457 56.0727 37.7249C56.076 37.7761 56.076 37.8274 56.0727 37.8786C56.0723 37.9076 56.0593 37.9353 56.0366 37.9558C56.0139 37.9763 55.9832 37.988 55.9511 37.9884C55.9193 37.9913 55.8873 37.9913 55.8555 37.9884C55.7485 37.9884 55.7096 37.9489 55.6933 37.8537C55.6909 37.8138 55.6909 37.7737 55.6933 37.7337V36.5027C55.6933 36.469 55.6933 36.4339 55.6933 36.4002C55.7031 36.2846 55.7485 36.2538 55.8717 36.2538C55.9611 36.253 56.0473 36.2841 56.1116 36.3402C56.2607 36.4632 56.4083 36.5861 56.5606 36.7061C56.713 36.8262 56.893 36.9682 57.06 37.0984C57.1783 37.1921 57.2966 37.2858 57.4166 37.378C57.4346 37.3891 57.4536 37.3989 57.4733 37.4073Z" fill="#DFDFE0"/>
<path d="M78.989 37.9956H78.3211C78.2708 37.9956 78.2206 37.9956 78.1703 37.9956C78.0617 37.9869 78.0277 37.9547 78.0179 37.8493C78.0179 37.8141 78.0179 37.7805 78.0179 37.7468V36.4982C78.0147 36.4524 78.0147 36.4064 78.0179 36.3606C78.0188 36.3314 78.0324 36.3036 78.0557 36.2833C78.0791 36.263 78.1104 36.2519 78.1428 36.2523C78.187 36.2501 78.2314 36.2501 78.2757 36.2523H79.6779C79.7093 36.2508 79.7406 36.2508 79.772 36.2523C79.805 36.2519 79.8375 36.2596 79.866 36.2748C79.8944 36.2899 79.9177 36.3119 79.9333 36.3382C79.9488 36.3645 79.9561 36.3941 79.9542 36.4239C79.9524 36.4537 79.9415 36.4824 79.9227 36.507C79.9047 36.5304 79.8774 36.5466 79.8465 36.5524C79.7929 36.5594 79.7386 36.5623 79.6844 36.5611H78.6793C78.4524 36.5611 78.4281 36.586 78.4394 36.788C78.4411 36.8106 78.4443 36.8331 78.4491 36.8554C78.4524 36.8722 78.4616 36.8877 78.4753 36.8996C78.489 36.9114 78.5065 36.919 78.5253 36.9212C78.5694 36.9271 78.6138 36.93 78.6583 36.93H79.1122C79.1564 36.9278 79.2008 36.9278 79.2451 36.93C79.2707 36.9321 79.2946 36.9424 79.3124 36.9591C79.3303 36.9757 79.3409 36.9976 79.3424 37.0208C79.3448 37.0432 79.3448 37.0657 79.3424 37.0881C79.3424 37.1847 79.3002 37.2257 79.1932 37.2345C79.0311 37.2345 78.869 37.2345 78.7069 37.2345C78.6529 37.2317 78.5988 37.2317 78.5448 37.2345C78.5221 37.2352 78.5005 37.2435 78.4843 37.2579C78.4681 37.2723 78.4585 37.2916 78.4573 37.3121C78.4573 37.4028 78.4573 37.495 78.4573 37.5858C78.4585 37.606 78.4683 37.625 78.4845 37.6388C78.5008 37.6527 78.5224 37.6605 78.5448 37.6604C78.6015 37.6604 78.6583 37.6604 78.7069 37.6604H79.806C79.8393 37.6564 79.8731 37.6613 79.9033 37.6745C79.9335 37.6877 79.9588 37.7085 79.9761 37.7345C79.9933 37.7605 80.0018 37.7905 80.0003 37.8208C79.9989 37.8511 79.9877 37.8803 79.9681 37.9049C79.9584 37.919 79.9456 37.9311 79.9306 37.9407C79.9155 37.9502 79.8985 37.957 79.8806 37.9605C79.8245 37.9698 79.7673 37.9732 79.7104 37.9708L78.989 37.9956Z" fill="#DFDFE0"/>
<path d="M63.8411 36.9433C63.8411 36.6754 63.8411 36.4075 63.8411 36.1396C63.8411 35.9259 63.8654 35.904 64.1005 35.904H65.8383C65.8761 35.9018 65.914 35.9018 65.9518 35.904C65.9807 35.9036 66.0086 35.9132 66.0297 35.931C66.0509 35.9487 66.0636 35.9731 66.0653 35.9991C66.071 36.0385 66.071 36.0783 66.0653 36.1177C66.0645 36.1409 66.0541 36.163 66.036 36.1795C66.018 36.1961 65.9937 36.2059 65.968 36.207C65.9114 36.2107 65.8545 36.2107 65.7978 36.207H64.5674C64.5107 36.2041 64.4539 36.2041 64.3972 36.207C64.3844 36.2068 64.3717 36.2089 64.3599 36.2133C64.3481 36.2176 64.3374 36.2241 64.3284 36.2324C64.3195 36.2406 64.3125 36.2503 64.3079 36.2611C64.3032 36.2718 64.3011 36.2833 64.3015 36.2948C64.3015 36.4309 64.3015 36.5685 64.3015 36.7047C64.3004 36.7177 64.3023 36.7308 64.3071 36.7431C64.3119 36.7554 64.3195 36.7667 64.3294 36.7762C64.3394 36.7858 64.3514 36.7933 64.3647 36.7983C64.3781 36.8034 64.3924 36.8059 64.4069 36.8057C64.4571 36.8086 64.5075 36.8086 64.5577 36.8057C64.7473 36.8057 64.937 36.8057 65.1251 36.8057C65.2872 36.8057 65.3244 36.8481 65.3147 36.993C65.3147 37.1057 65.271 37.1394 65.138 37.1394C64.9483 37.1394 64.7587 37.1394 64.5706 37.1394C64.5139 37.1365 64.4571 37.1365 64.4004 37.1394C64.3747 37.1405 64.3504 37.1503 64.3324 37.1669C64.3144 37.1834 64.3039 37.2055 64.3031 37.2287C64.2999 37.274 64.2999 37.3195 64.3031 37.3648C64.3031 37.5112 64.3031 37.6503 64.3031 37.7923C64.3031 37.9342 64.261 37.9386 64.1329 37.9518C63.8898 37.962 63.846 37.9328 63.8476 37.7234C63.8427 37.4907 63.8411 37.217 63.8411 36.9433Z" fill="#DFDFE0"/>
<path d="M48.4113 37.0311C48.4113 36.8379 48.4113 36.6432 48.4113 36.4456C48.4113 36.2743 48.4632 36.2377 48.6528 36.2465C48.7825 36.2465 48.8231 36.286 48.8279 36.4017C48.8328 36.5173 48.8279 36.63 48.8279 36.7442C48.8279 36.9769 48.8279 37.2111 48.8279 37.4439C48.8279 37.479 48.8279 37.5127 48.8279 37.5463C48.8279 37.6429 48.862 37.6678 48.9625 37.6766H49.9514C49.9703 37.678 49.9892 37.678 50.0081 37.6766C50.0337 37.6763 50.0581 37.6671 50.0765 37.6511C50.0948 37.635 50.1058 37.6133 50.107 37.5902C50.1102 37.539 50.1102 37.4877 50.107 37.4365C50.107 37.135 50.107 36.833 50.107 36.5305C50.107 36.4851 50.107 36.4397 50.107 36.3943C50.1167 36.2889 50.1556 36.2567 50.2691 36.248C50.3068 36.2443 50.3449 36.2443 50.3826 36.248C50.4 36.2478 50.4173 36.2507 50.4335 36.2567C50.4496 36.2627 50.4643 36.2716 50.4765 36.2828C50.4888 36.294 50.4984 36.3073 50.5048 36.3219C50.5113 36.3366 50.5143 36.3523 50.5139 36.368C50.5163 36.4021 50.5163 36.4363 50.5139 36.4705V37.5302C50.5156 37.6211 50.4986 37.7114 50.4636 37.7966C50.4506 37.8322 50.4279 37.8642 50.3976 37.8898C50.3673 37.9153 50.3303 37.9336 50.2902 37.943C50.1931 37.9658 50.0937 37.98 49.9935 37.9855C49.6336 37.9855 49.2737 37.9855 48.9139 37.9855C48.826 37.9818 48.7386 37.9711 48.6528 37.9533C48.596 37.9453 48.5432 37.9221 48.5012 37.8865C48.4593 37.851 48.4302 37.8049 48.4178 37.7542C48.4003 37.6939 48.3911 37.632 48.3902 37.5697C48.4097 37.3956 48.4113 37.2126 48.4113 37.0311Z" fill="#DFDFE0"/>
<path d="M40.0318 37.0296C40.0318 36.8364 40.0318 36.6432 40.0318 36.4441C40.0318 36.2831 40.0723 36.2406 40.2766 36.248C40.4046 36.248 40.4387 36.286 40.45 36.4031C40.45 36.4485 40.45 36.4939 40.45 36.5392V37.4292C40.45 37.4746 40.45 37.52 40.45 37.5653C40.4581 37.64 40.4873 37.6663 40.5667 37.6751C40.5921 37.6766 40.6175 37.6766 40.6429 37.6751H41.5329C41.7064 37.6751 41.7275 37.6561 41.7291 37.4965C41.7291 37.1716 41.7291 36.8466 41.7291 36.5231C41.7291 36.4719 41.7291 36.4192 41.7291 36.3694C41.7372 36.2845 41.768 36.2523 41.8555 36.2465C42.1214 36.2289 42.1506 36.2714 42.1489 36.4836C42.1489 36.8188 42.1489 37.1555 42.1489 37.4907C42.1477 37.576 42.1357 37.661 42.1133 37.7439C42.1008 37.7975 42.0705 37.8464 42.0265 37.884C41.9825 37.9217 41.9268 37.9464 41.8669 37.9547C41.7805 37.9721 41.6926 37.9824 41.6043 37.9854C41.2508 37.9854 40.8974 37.9854 40.544 37.9854C40.4435 37.9817 40.3439 37.9669 40.2474 37.9415C40.1885 37.9281 40.1359 37.898 40.0973 37.8556C40.0588 37.8131 40.0364 37.7606 40.0334 37.7059C40.0334 37.6605 40.0334 37.6151 40.0253 37.5697L40.0318 37.0296Z" fill="#DFDFE0"/>
<path d="M68.6964 37.0414C68.6964 37.2127 68.6964 37.3839 68.6964 37.5537C68.6956 37.611 68.6907 37.6682 68.6818 37.725C68.676 37.7824 68.6493 37.8365 68.6059 37.8789C68.5625 37.9212 68.5049 37.9495 68.4419 37.9592C68.3564 37.9784 68.2689 37.9897 68.1809 37.9929C67.8275 37.9929 67.4741 37.9929 67.1207 37.9929C67.0262 37.9896 66.9323 37.9783 66.8402 37.9592C66.787 37.95 66.7377 37.9274 66.6981 37.894C66.6585 37.8606 66.6302 37.8177 66.6165 37.7704C66.5906 37.7005 66.5764 37.6274 66.5744 37.5537C66.5744 37.1839 66.5744 36.8135 66.5744 36.4427C66.5744 36.2802 66.6197 36.2466 66.8046 36.251C66.8361 36.2509 66.8677 36.2538 66.8986 36.2597C66.9207 36.2623 66.9412 36.2715 66.9568 36.2858C66.9723 36.3001 66.9821 36.3188 66.9845 36.3388C66.9904 36.3898 66.9931 36.4412 66.9926 36.4925C66.9926 36.8057 66.9926 37.119 66.9926 37.4322C66.9926 37.6825 66.9926 37.6825 67.2617 37.6825C67.5308 37.6825 67.8032 37.6825 68.0723 37.6825C68.2474 37.6825 68.2701 37.662 68.2717 37.5054C68.2717 37.1761 68.2717 36.8453 68.2717 36.5145C68.2687 36.4657 68.2687 36.4168 68.2717 36.3681C68.273 36.3421 68.2845 36.3174 68.3041 36.2984C68.3237 36.2794 68.3501 36.2672 68.3787 36.2641C68.3975 36.262 68.4166 36.262 68.4354 36.2641C68.6543 36.2554 68.6867 36.3037 68.6851 36.4735C68.6948 36.655 68.6964 36.8482 68.6964 37.0414Z" fill="#DFDFE0"/>
<path d="M74.231 37.0355C74.231 37.2185 74.231 37.4 74.231 37.583C74.231 37.8611 74.1402 37.9475 73.837 37.987C73.787 37.9923 73.7366 37.9948 73.6863 37.9943C73.3507 37.9943 73.0168 37.9943 72.6828 37.9943C72.5819 37.9918 72.4814 37.9806 72.3829 37.9606C72.3264 37.952 72.274 37.9285 72.2322 37.8931C72.1904 37.8577 72.161 37.8119 72.1478 37.7616C72.1244 37.6847 72.1113 37.6056 72.1089 37.5259C72.1089 37.1726 72.1089 36.8199 72.1089 36.4676C72.1089 36.2802 72.1543 36.2451 72.3537 36.2524C72.4899 36.2524 72.5158 36.2832 72.5288 36.3988C72.5288 36.4544 72.5288 36.5115 72.5288 36.5686C72.5288 36.8701 72.5288 37.1731 72.5288 37.4747C72.5288 37.6664 72.5434 37.6796 72.7525 37.6796H73.5858C73.6231 37.6796 73.662 37.6796 73.6992 37.6796C73.7136 37.6796 73.7278 37.677 73.741 37.672C73.7541 37.6669 73.7661 37.6596 73.7761 37.6503C73.786 37.641 73.7939 37.63 73.799 37.6179C73.8042 37.6059 73.8067 37.593 73.8062 37.58C73.8062 37.5288 73.8062 37.4776 73.8062 37.4337V36.5452C73.8062 36.5218 73.8062 36.4998 73.8062 36.4764C73.8062 36.2788 73.9035 36.2158 74.1207 36.2671C74.1459 36.2713 74.1689 36.2826 74.1864 36.2995C74.2039 36.3163 74.215 36.3378 74.218 36.3607C74.2212 36.4061 74.2212 36.4515 74.218 36.4969V37.0429L74.231 37.0355Z" fill="#DFDFE0"/>
<path d="M46.7286 36.2495H47.5035C47.5472 36.2495 47.5926 36.2495 47.6364 36.2495C47.6693 36.2503 47.7013 36.2592 47.729 36.2752C47.7568 36.2912 47.7792 36.3137 47.7938 36.3404C47.8085 36.367 47.8148 36.3967 47.8122 36.4263C47.8096 36.4559 47.7982 36.4844 47.7791 36.5086C47.7599 36.5302 47.7329 36.5452 47.7029 36.551C47.6529 36.5571 47.6025 36.5595 47.5521 36.5583H47.1549C47.116 36.5583 47.0787 36.5583 47.0414 36.5583C47.0156 36.5587 46.9909 36.568 46.9725 36.5844C46.9541 36.6007 46.9434 36.6228 46.9425 36.6461C46.9361 36.6947 46.9334 36.7436 46.9344 36.7925V37.6971C46.9344 37.7425 46.9344 37.7879 46.9344 37.8333C46.9247 37.9386 46.8858 37.9796 46.7723 37.9796C46.5454 37.9899 46.5227 37.9343 46.5227 37.7703C46.5227 37.4454 46.5227 37.1219 46.5227 36.7969C46.5256 36.7482 46.5256 36.6993 46.5227 36.6505C46.5227 36.6274 46.5127 36.6051 46.4949 36.5884C46.477 36.5717 46.4527 36.562 46.427 36.5612C46.3638 36.5612 46.3006 36.5612 46.2374 36.5612C46.0996 36.5612 45.9601 36.5612 45.8224 36.5612C45.6846 36.5612 45.6602 36.5203 45.6602 36.4017C45.6586 36.3847 45.6586 36.3675 45.6602 36.3505C45.6617 36.3273 45.6723 36.3054 45.6902 36.2888C45.708 36.2721 45.7319 36.2618 45.7575 36.2597C45.8077 36.2561 45.8581 36.2561 45.9083 36.2597L46.7286 36.2495Z" fill="#DFDFE0"/>
<path d="M70.4326 36.2494H71.227C71.2777 36.2465 71.3286 36.2465 71.3794 36.2494C71.4115 36.2513 71.4415 36.2644 71.463 36.2861C71.4845 36.3077 71.4958 36.336 71.4945 36.365C71.4977 36.3933 71.4977 36.4217 71.4945 36.4499C71.4941 36.476 71.4826 36.5009 71.4623 36.5194C71.4421 36.538 71.4147 36.5487 71.3859 36.5495C71.3291 36.5495 71.2724 36.5495 71.2157 36.5495C71.0633 36.5495 70.9125 36.5495 70.7601 36.5495C70.6693 36.5495 70.6385 36.5831 70.632 36.6666C70.632 36.712 70.632 36.7573 70.632 36.8027C70.632 37.1101 70.632 37.419 70.632 37.7263C70.6317 37.7753 70.6285 37.8241 70.6223 37.8727C70.6187 37.8956 70.607 37.9169 70.5888 37.9332C70.5707 37.9496 70.5472 37.9602 70.5218 37.9635C70.303 38.0103 70.2138 37.9488 70.2138 37.7468C70.2138 37.4219 70.2138 37.0969 70.2138 36.772C70.2138 36.5465 70.2057 36.5392 69.9609 36.5378H69.5637C69.5196 36.5397 69.4753 36.5358 69.4324 36.5261C69.4175 36.5223 69.4036 36.5159 69.3916 36.507C69.3796 36.4982 69.3698 36.4873 69.3627 36.4748C69.3471 36.4466 69.339 36.4156 69.339 36.3841C69.339 36.3526 69.3471 36.3215 69.3627 36.2933C69.383 36.2654 69.4143 36.2456 69.4502 36.2377C69.5037 36.2288 69.5581 36.2254 69.6124 36.2274L70.4326 36.2494Z" fill="#DFDFE0"/>
<path d="M54.7435 37.1233V37.6868C54.7435 37.7205 54.7435 37.7542 54.7435 37.7893C54.7435 37.8552 54.7565 37.9357 54.6738 37.9708C54.6309 37.9889 54.5841 37.9982 54.5368 37.9982C54.4895 37.9982 54.4427 37.9889 54.3998 37.9708C54.384 37.9628 54.3703 37.9518 54.3594 37.9387C54.3485 37.9256 54.3407 37.9106 54.3366 37.8947C54.3266 37.8499 54.3222 37.8042 54.3236 37.7586V36.4807C54.3212 36.4466 54.3212 36.4123 54.3236 36.3782C54.335 36.2933 54.3723 36.2611 54.4695 36.2509H54.4906C54.6949 36.2421 54.7419 36.2802 54.7419 36.4573C54.7419 36.6798 54.7419 36.8964 54.7419 37.1218L54.7435 37.1233Z" fill="#DFDFE0"/>
<path d="M10.9495 10.7664C10.9213 10.8162 10.8968 10.8676 10.8762 10.9203C10.8404 11.0542 10.8097 11.1897 10.7738 11.3236C10.6681 11.7314 10.5606 12.1393 10.4548 12.5549C10.4054 12.7472 10.361 12.9412 10.3081 13.1336C10.2553 13.3259 10.1955 13.5152 10.1376 13.7046L10.1273 13.7399C10.0523 14.1293 9.93285 14.5095 9.83733 14.8974C9.78103 15.1313 9.7128 15.3591 9.64968 15.5946C9.5769 15.8685 9.50469 16.1425 9.43304 16.4164C9.35457 16.7243 9.27781 17.0229 9.19764 17.3245C9.12599 17.5923 9.05094 17.8601 8.981 18.1279C8.91106 18.3957 8.83941 18.7005 8.76265 18.9852C8.70977 19.1883 8.64665 19.39 8.59207 19.6008C8.58183 19.6408 8.57671 19.6824 8.56648 19.724C8.52725 19.8779 8.48631 20.0395 8.44707 20.1965C8.39248 20.4119 8.3396 20.629 8.27649 20.8444L8.22531 21.0553C8.1622 21.3 8.11102 21.5493 8.03085 21.7894C7.93362 22.0834 7.87562 22.3835 7.78862 22.679C7.72891 22.8868 7.68286 23.0992 7.62827 23.3085C7.60098 23.4193 7.56686 23.5286 7.53786 23.6394C7.48839 23.8195 7.44234 24.0011 7.39457 24.1812C7.3724 24.2674 7.3451 24.3551 7.32293 24.4413C7.25128 24.705 7.18134 24.9672 7.11311 25.2278C7.09605 25.2924 7.08923 25.3586 7.07217 25.4217C7.00735 25.6603 6.94082 25.8988 6.87429 26.1358C6.86431 26.1581 6.85744 26.1813 6.85382 26.2051C6.83515 26.3479 6.80086 26.4886 6.75147 26.6253C6.65936 26.9885 6.57065 27.3502 6.47513 27.7119C6.3796 28.0736 6.28066 28.4214 6.18684 28.7769C6.09302 29.1325 6.01626 29.4772 5.91902 29.8266C5.8832 29.9605 5.83885 30.0929 5.80132 30.2252C5.76379 30.3576 5.72968 30.493 5.69556 30.6269C5.66144 30.7608 5.63415 30.9209 5.59492 31.0656C5.55568 31.2103 5.5028 31.3734 5.45845 31.5273C5.43798 31.5981 5.4158 31.6674 5.40216 31.7382C5.3561 31.9552 5.2981 32.1691 5.23157 32.3815C5.22134 32.4169 5.21793 32.4523 5.2094 32.4877C5.19575 32.5523 5.1821 32.617 5.16334 32.6816C5.10705 32.8725 5.0627 32.9033 4.84435 32.9063H0.346066C0.273347 32.9102 0.200439 32.9102 0.12772 32.9063C0.107573 32.9054 0.0879189 32.9004 0.0702094 32.8916C0.0524998 32.8829 0.0371861 32.8707 0.0253979 32.8559C0.0136097 32.8412 0.00564787 32.8242 0.00210005 32.8063C-0.00144777 32.7884 -0.000490992 32.77 0.00489946 32.7524C0.00910795 32.7288 0.0159663 32.7056 0.0253693 32.6832C0.148189 32.3276 0.269303 31.9736 0.393829 31.6181C0.46718 31.4073 0.543943 31.1964 0.615588 30.9855C0.687233 30.7747 0.760584 30.5377 0.833935 30.313C0.939696 29.9974 1.04716 29.6835 1.15122 29.368C1.22969 29.1325 1.30304 28.8955 1.38321 28.66C1.4958 28.3291 1.61521 27.9981 1.72438 27.6657C1.80114 27.4364 1.87108 27.204 1.94443 26.9746L2.04678 26.6668C2.13207 26.4206 2.21737 26.1759 2.30095 25.9296C2.45107 25.4817 2.59947 25.0338 2.74959 24.586C2.89117 24.1689 3.03958 23.7518 3.17946 23.3331C3.29204 23.0007 3.39439 22.6652 3.50527 22.3327C3.59397 22.0634 3.69121 21.7956 3.78162 21.5262C3.97267 20.965 4.16259 20.4006 4.35136 19.8332C4.54924 19.2438 4.74882 18.6527 4.94499 18.0617C5.07123 17.6831 5.18722 17.3014 5.31516 16.9228C5.3868 16.7058 5.4738 16.4919 5.55057 16.2748C5.62733 16.0578 5.71091 15.7931 5.78938 15.5515L5.97873 14.9835C6.03161 14.8296 6.0862 14.6634 6.14931 14.5033C6.21243 14.3433 6.26019 14.1709 6.3199 14.0031C6.3796 13.8354 6.44101 13.6491 6.49048 13.4706C6.58601 13.1628 6.69006 12.855 6.79924 12.5471C6.89306 12.284 6.96982 12.0192 7.06535 11.7545C7.18646 11.3944 7.31269 11.0342 7.43551 10.6771L7.60609 10.1615C7.64021 10.0584 7.67262 9.95531 7.70674 9.85373C7.7835 9.6244 7.85685 9.392 7.93532 9.16575C8.08714 8.71942 8.24067 8.27307 8.39078 7.82673C8.5136 7.45888 8.62959 7.09105 8.75412 6.72475C8.865 6.3923 8.98611 6.0614 9.09529 5.72896C9.16011 5.54119 9.21811 5.35033 9.28122 5.16102C9.37846 4.86859 9.4791 4.57617 9.57804 4.28528C9.6258 4.14215 9.67357 3.99746 9.72303 3.85433C9.81856 3.56805 9.9175 3.28179 10.013 2.99552C10.0301 2.94319 10.0352 2.88932 10.0506 2.84161C10.0609 2.80121 10.0776 2.76235 10.1 2.72618C10.107 2.71145 10.1184 2.69877 10.1329 2.68956C10.1474 2.68034 10.1644 2.67494 10.1822 2.67398C10.1999 2.67302 10.2175 2.67654 10.2331 2.68413C10.2488 2.69171 10.2617 2.70307 10.2706 2.71693C10.2921 2.74709 10.3104 2.77904 10.3252 2.81235L10.7755 3.79276C10.8796 4.01901 10.9802 4.2545 11.086 4.47305C11.2293 4.78087 11.3743 5.07946 11.5176 5.38266C11.5602 5.47039 11.5995 5.55965 11.6387 5.64892C11.7052 5.80283 11.77 5.95673 11.84 6.09987C12.0413 6.53492 12.2448 6.97099 12.4507 7.4081C12.6605 7.85444 12.8737 8.30079 13.0835 8.74712C13.1825 8.95644 13.2763 9.16883 13.3735 9.37815C13.4861 9.62133 13.6038 9.86296 13.7147 10.1061C13.7727 10.2277 13.8222 10.3509 13.8853 10.4724C14.0883 10.908 14.3049 11.3405 14.496 11.7807C14.687 12.2209 14.8883 12.6072 15.0776 13.0227C15.1732 13.2336 15.2636 13.446 15.3608 13.6553C15.6076 14.1919 15.8561 14.7286 16.1063 15.2652C16.311 15.7074 16.5174 16.1492 16.7255 16.5904C16.8176 16.7889 16.9148 16.9859 17.0069 17.186C17.0991 17.3861 17.1775 17.5615 17.2645 17.7493C17.3225 17.8771 17.3754 18.0079 17.4436 18.1295C17.5767 18.3665 17.6756 18.6143 17.7848 18.8575C17.9554 19.2114 18.114 19.5639 18.2795 19.9179C18.3818 20.138 18.4825 20.3596 18.5865 20.5813C18.7332 20.8891 18.8834 21.2092 19.0284 21.5247C19.1256 21.734 19.2143 21.948 19.3115 22.1573C19.4685 22.4943 19.6305 22.8299 19.7892 23.1654C19.8796 23.3578 19.9597 23.5532 20.0553 23.7456C20.161 23.9734 20.2719 24.1981 20.3777 24.4244C20.4186 24.5121 20.4493 24.6044 20.4903 24.6922C20.6028 24.9292 20.7188 25.1647 20.8314 25.4017C20.8809 25.5064 20.927 25.6126 20.9747 25.7095C21.1589 26.1081 21.3398 26.5083 21.524 26.9054C21.6553 27.1871 21.7918 27.4672 21.9249 27.7473C21.9829 27.8689 22.034 27.9935 22.0954 28.1136C22.2456 28.4353 22.4008 28.7523 22.5441 29.0755C22.6379 29.2864 22.7147 29.5034 22.8 29.7189C22.9108 30.0067 23.0183 30.296 23.1275 30.5869C23.2241 30.8465 23.3219 31.1076 23.4209 31.3703C23.5062 31.5966 23.5915 31.8228 23.6802 32.049C23.7484 32.2245 23.8218 32.3984 23.89 32.5723C23.9048 32.6126 23.9162 32.6537 23.9241 32.6955C23.9312 32.7203 23.9326 32.7461 23.9283 32.7714C23.9239 32.7967 23.914 32.8209 23.899 32.8426C23.884 32.8643 23.8643 32.8831 23.8411 32.8978C23.8178 32.9124 23.7915 32.9227 23.7638 32.9279C23.7192 32.9392 23.6735 32.9459 23.6273 32.9479C23.5608 32.9479 23.4942 32.9479 23.4277 32.9479H10.8284C10.7687 32.9479 10.7073 32.9479 10.6578 32.9479C10.6016 32.9539 10.5449 32.9418 10.4977 32.9136C10.4506 32.8854 10.416 32.843 10.4003 32.794C10.3815 32.7478 10.3627 32.7032 10.3457 32.6585C10.017 31.7843 9.68892 30.9122 9.3614 30.0421C9.28463 29.8374 9.20617 29.6342 9.1294 29.4264C9.12384 29.4155 9.11927 29.4042 9.11576 29.3926C9.068 29.2525 9.11576 29.1894 9.28634 29.1802C9.35969 29.1802 9.43304 29.1802 9.50469 29.1802H17.3822C17.4556 29.1802 17.5289 29.1802 17.6023 29.1802C17.7251 29.1802 17.7592 29.1294 17.7217 29.0263C17.6228 28.7585 17.5187 28.4922 17.4181 28.2259C17.3498 28.0443 17.2833 27.8627 17.2168 27.6811L16.8193 26.6037C16.7647 26.4498 16.7118 26.3082 16.6487 26.1605C16.5856 26.0127 16.5344 25.8527 16.4781 25.6987C16.3997 25.4894 16.3195 25.2801 16.241 25.0692L15.9237 24.1996C15.847 23.9888 15.7719 23.7779 15.6952 23.5671L14.9787 21.6417C14.8081 21.1799 14.6375 20.7182 14.467 20.2457C14.2964 19.7732 14.1258 19.3115 13.9552 18.8451C13.8136 18.465 13.6618 18.0879 13.5202 17.7077C13.4435 17.503 13.3752 17.2968 13.3019 17.0921C13.2371 16.9151 13.1705 16.7396 13.1057 16.5626C13.0221 16.3364 12.9351 16.1009 12.8567 15.8808L12.553 15.0636C12.4814 14.8696 12.4114 14.6757 12.3398 14.4833C12.1897 14.0801 12.0379 13.6768 11.8894 13.2736C11.753 12.9042 11.6216 12.5333 11.4852 12.1639C11.393 11.913 11.2941 11.6652 11.202 11.4144C11.1457 11.2605 11.0945 11.1066 11.0314 10.9526C11.0075 10.8865 10.9871 10.8495 10.9495 10.7664Z" fill="#DFDFE0"/>
<path d="M48.6432 6.73105H51.5756C51.6353 6.73105 51.695 6.73105 51.7547 6.73105C51.7941 6.73428 51.8326 6.74312 51.869 6.75722C51.9082 6.77107 51.9406 6.80186 51.927 6.84033C51.9216 6.85362 51.913 6.86563 51.9018 6.87549C51.8905 6.88535 51.877 6.8928 51.8621 6.89728C51.693 6.9365 51.5434 7.02596 51.4374 7.15123C51.3518 7.24119 51.2874 7.34592 51.248 7.45905C51.1392 7.71117 51.0842 7.97957 51.086 8.25013C51.0877 8.33421 51.0739 8.41798 51.045 8.49795C51.0215 8.56627 51.0089 8.63726 51.0075 8.7088C51.0075 8.90734 51.0075 9.10435 51.0075 9.30289C51.0004 9.41679 51.0183 9.53082 51.0604 9.6384C51.0759 9.68435 51.0845 9.73198 51.086 9.78001C51.086 9.82772 51.086 9.87544 51.086 9.92315C51.0835 10.2324 51.1097 10.5413 51.1645 10.8466C51.1883 11.0005 51.2156 11.1544 51.2293 11.3083C51.2549 11.6023 51.3436 11.8855 51.3726 12.1779C51.3875 12.3088 51.4137 12.4385 51.451 12.5658C51.5176 12.8105 51.5363 13.0629 51.6216 13.3045C51.6466 13.3918 51.6632 13.4809 51.6711 13.5708C51.6918 13.7009 51.7202 13.8298 51.7564 13.9571C51.8229 14.2203 51.8724 14.4866 51.9355 14.7498C51.9867 14.9591 52.0498 15.1684 52.1061 15.3777C52.1624 15.587 52.1948 15.7763 52.2596 15.9718C52.3551 16.2581 52.4063 16.5551 52.495 16.8429C52.5939 17.1661 52.6906 17.4893 52.785 17.8125C52.8464 18.0203 52.9027 18.2297 52.9556 18.439C52.988 18.5482 53.0187 18.6591 53.0528 18.7683C53.1466 19.0608 53.2473 19.3532 53.3394 19.6472C53.4042 19.8549 53.4588 20.0643 53.5219 20.272C53.585 20.4798 53.6516 20.6753 53.7198 20.8754C53.8324 21.2063 53.9518 21.5372 54.061 21.8696C54.1224 22.0528 54.1701 22.2405 54.2315 22.4237C54.3322 22.7207 54.4414 23.0163 54.5488 23.3133C54.5557 23.3361 54.5693 23.3568 54.5881 23.3733C54.5966 23.3825 54.6256 23.3733 54.6409 23.3733C54.6569 23.3629 54.6697 23.3492 54.6785 23.3333C54.8412 23.0572 54.9729 22.6467 54.9992 22.4483C55.0179 22.3067 55.064 22.1682 55.0981 22.0266C55.1322 21.885 55.1612 21.7696 55.1919 21.6403C55.2226 21.511 55.2584 21.3602 55.2892 21.2186C55.3403 20.9846 55.3762 20.7461 55.4427 20.5152C55.5467 20.1566 55.6047 19.7888 55.7037 19.4271C55.7855 19.1193 55.8436 18.8114 55.9152 18.5128C55.9578 18.3374 56.009 18.165 56.05 17.9895C56.0858 17.8433 56.1097 17.6956 56.1438 17.5478C56.1898 17.3493 56.2291 17.1492 56.2854 16.9522C56.3417 16.7552 56.3775 16.5536 56.4252 16.355C56.4832 16.1149 56.5481 15.8764 56.6044 15.6363C56.6436 15.467 56.6726 15.2946 56.7101 15.1253C56.7476 14.956 56.792 14.7852 56.8329 14.6159C56.8432 14.5758 56.8551 14.5358 56.8636 14.4943C56.8824 14.4065 56.8995 14.3173 56.9182 14.2295C56.9371 14.1051 56.9638 13.9818 56.9984 13.8602C57.053 13.7062 57.0803 13.5323 57.1178 13.3692C57.1946 13.0337 57.2679 12.6997 57.3464 12.3657C57.3993 12.1318 57.459 11.904 57.517 11.6654C57.5528 11.5253 57.5869 11.3853 57.621 11.2437L57.6773 11.0159C57.688 10.988 57.6949 10.9591 57.6978 10.9297C57.7055 10.78 57.7377 10.6322 57.7933 10.4911C57.8308 10.3633 57.8547 10.2325 57.8837 10.1032C57.9656 9.74614 58.0543 9.38907 58.1311 9.02585C58.1788 8.82115 58.2198 8.61491 58.2692 8.41021C58.3051 8.2563 58.3494 8.10239 58.3887 7.95618C58.404 7.89769 58.4108 7.83767 58.4245 7.78072C58.442 7.68637 58.4647 7.59287 58.4927 7.50059C58.5053 7.45944 58.5328 7.42329 58.5708 7.3979C58.6089 7.37251 58.6552 7.35936 58.7025 7.36055C58.7554 7.36055 58.8083 7.36055 58.8612 7.36055H61.9726C62.0393 7.35902 62.106 7.3621 62.1722 7.36977C62.1889 7.37056 62.2053 7.37461 62.2201 7.38165C62.235 7.38868 62.248 7.39853 62.2582 7.41052C62.2684 7.42252 62.2756 7.43637 62.2793 7.45113C62.283 7.46588 62.2831 7.48119 62.2797 7.49599C62.2734 7.53763 62.2637 7.57878 62.2507 7.61911C62.1568 7.92693 62.0596 8.23476 61.9658 8.55489C61.8839 8.83193 61.8026 9.10998 61.7219 9.38907C61.628 9.71998 61.5393 10.0509 61.4421 10.3818C61.379 10.5957 61.3039 10.8066 61.2391 11.0205C61.1743 11.2344 61.1231 11.4145 61.0685 11.6115C61.0327 11.7393 60.9918 11.867 60.961 11.9948C60.8945 12.2641 60.7905 12.5211 60.7239 12.792C60.6847 12.9613 60.6216 13.126 60.5704 13.2938C60.5022 13.5185 60.4322 13.7447 60.3674 13.9694C60.3265 14.1079 60.2941 14.248 60.2514 14.3865C60.1695 14.659 60.0808 14.9283 60.0024 15.2007C59.9393 15.4085 59.8813 15.6178 59.8181 15.8256C59.7107 16.1904 59.5981 16.5536 59.4906 16.9183C59.436 17.0969 59.3934 17.2785 59.3405 17.4586C59.2876 17.6386 59.2194 17.8633 59.158 18.065C59.059 18.3943 58.9567 18.7237 58.8595 19.0531C58.7776 19.3316 58.7008 19.6102 58.6206 19.8888C58.5934 19.9812 58.5644 20.0735 58.5371 20.1658L58.1959 21.3479C58.1933 21.3598 58.1898 21.3717 58.1857 21.3833C58.1157 21.551 58.0765 21.728 58.0253 21.9004C57.9673 22.1036 57.9008 22.3037 57.8411 22.5053C57.7814 22.7069 57.7302 22.8885 57.6705 23.0794C57.5966 23.3348 57.5227 23.5914 57.4487 23.8489C57.3993 24.0028 57.3447 24.1706 57.2935 24.3306C57.2782 24.383 57.2747 24.4384 57.2594 24.4846C57.1553 24.8262 57.0496 25.1664 56.9472 25.5065C56.8961 25.6743 56.85 25.8436 56.8005 26.0113C56.7579 26.1545 56.7118 26.2991 56.6675 26.4423C56.6589 26.4715 56.6453 26.4992 56.6385 26.5285C56.5498 26.904 56.4269 27.2719 56.3127 27.6412C56.1984 28.0106 56.1011 28.3831 55.9937 28.754C55.9408 28.9341 55.8828 29.1111 55.8231 29.2911C55.76 29.4989 55.6968 29.7067 55.6354 29.9068C55.6081 30.0007 55.5809 30.093 55.5553 30.1854C55.4614 30.5101 55.371 30.8364 55.2738 31.1596C55.1697 31.5075 55.0589 31.8522 54.9531 32.1985C54.919 32.3078 54.8968 32.4217 54.8627 32.5309C54.8379 32.6112 54.8071 32.6899 54.7706 32.7664C54.7652 32.7758 54.7573 32.7838 54.7477 32.7897C54.738 32.7957 54.7269 32.7995 54.7153 32.8007C54.7037 32.8019 54.692 32.8005 54.6811 32.7967C54.6702 32.7929 54.6605 32.7867 54.6529 32.7787C54.6281 32.751 54.6085 32.7198 54.5949 32.6864C54.5079 32.4401 54.4243 32.1939 54.3373 31.9492C54.2929 31.8245 54.2418 31.6998 54.1957 31.5752C54.0166 31.0796 53.8358 30.584 53.6584 30.0884C53.5901 29.9006 53.5321 29.7098 53.4656 29.522C53.3837 29.2927 53.295 29.0603 53.2149 28.8386C53.0886 28.4923 52.9658 28.1445 52.8396 27.7967L52.4745 26.8086C52.4524 26.7516 52.437 26.6932 52.4165 26.6362C52.3028 26.3058 52.1857 25.9749 52.0651 25.6435C51.9082 25.2033 51.753 24.7647 51.5977 24.3245C51.579 24.2737 51.5568 24.2229 51.538 24.1706C51.4101 23.812 51.2856 23.4518 51.1559 23.0932C51.0382 22.7685 50.9137 22.4452 50.796 22.1205C50.6783 21.7957 50.5572 21.4479 50.4378 21.1108C50.4224 21.0647 50.4088 21.0185 50.3917 20.9723C50.2063 20.4665 50.021 19.9601 49.8356 19.4532C49.7315 19.1623 49.6309 18.8715 49.5268 18.5806C49.3767 18.165 49.2249 17.7494 49.0748 17.3339C48.9554 17.003 48.8394 16.6721 48.72 16.3412C48.5596 15.8979 48.3942 15.4547 48.2338 15.0114C48.1468 14.7713 48.0632 14.5312 47.9797 14.2911C47.8312 13.8755 47.6794 13.46 47.5293 13.0444C47.4423 12.7982 47.3587 12.5519 47.27 12.3072C47.1506 11.9763 47.0278 11.6485 46.905 11.3191C46.8675 11.216 46.8299 11.1144 46.7958 11.0113C46.7293 10.8158 46.6662 10.6203 46.5979 10.4264C46.5297 10.2325 46.4512 10.0416 46.3813 9.84772C46.267 9.52759 46.1561 9.20746 46.0401 8.88886C45.9156 8.54103 45.7894 8.19321 45.6648 7.84537C45.5523 7.53755 45.4397 7.21894 45.3237 6.90496C45.2896 6.80954 45.3237 6.75107 45.4243 6.7249C45.4756 6.71275 45.5283 6.70604 45.5813 6.70489C45.6665 6.70489 45.7518 6.70489 45.8405 6.70489L48.6432 6.73105Z" fill="#DFDFE0"/>
<path d="M48.599 30.4839C48.64 30.5347 48.6655 30.5747 48.6997 30.6101C48.8856 30.8056 49.0732 30.9995 49.2575 31.195C49.3871 31.3304 49.515 31.4689 49.643 31.6059C49.8579 31.8337 50.0711 32.0677 50.2878 32.2893C50.4328 32.4432 50.5829 32.5817 50.7313 32.7264L50.7603 32.7526C50.7702 32.7608 50.7775 32.7712 50.7815 32.7828C50.7855 32.7944 50.7861 32.8067 50.7832 32.8186C50.7802 32.8304 50.7739 32.8414 50.7648 32.8503C50.7557 32.8593 50.7441 32.8659 50.7313 32.8695C50.6624 32.8902 50.5906 32.9021 50.5181 32.9049L48.4233 32.8911H48.28C48.2331 32.8922 48.1866 32.8832 48.1442 32.8651C48.1018 32.8469 48.0648 32.8199 48.0361 32.7864C47.9934 32.7402 47.9559 32.691 47.9133 32.6448C47.6506 32.3585 47.4015 32.0677 47.1218 31.7906C46.842 31.5136 46.564 31.1965 46.2893 30.8964C46.0948 30.684 45.8867 30.4824 45.6889 30.2808C45.5336 30.1161 45.3835 29.9499 45.23 29.7836L44.679 29.1926L44.2577 28.7309C44.2402 28.7128 44.2248 28.6932 44.2116 28.6724C44.2052 28.6619 44.2014 28.6502 44.2005 28.6382C44.1997 28.6262 44.2018 28.6142 44.2067 28.603C44.2116 28.5919 44.2191 28.5818 44.2288 28.5736C44.2385 28.5654 44.2501 28.5592 44.2628 28.5554C44.2942 28.546 44.3269 28.5403 44.36 28.5385C44.4265 28.5385 44.4931 28.5385 44.5596 28.5385H48.7662C48.8395 28.5385 48.9129 28.5385 48.9862 28.5385C49.0564 28.5352 49.1247 28.5175 49.1862 28.4868C49.2477 28.4562 49.3006 28.4133 49.3411 28.3615C49.3675 28.3274 49.3871 28.2894 49.3991 28.2492C49.4142 28.1988 49.4245 28.1473 49.4298 28.0952C49.4639 27.8695 49.457 27.6402 49.4093 27.4165C49.3939 27.3581 49.3704 27.3018 49.3393 27.2487C49.313 27.1999 49.2727 27.1582 49.2227 27.1279C49.1726 27.0976 49.1146 27.0798 49.0545 27.0764C49.0016 27.0764 48.9487 27.0764 48.8941 27.0764H43.5549C43.502 27.0733 43.4491 27.0733 43.3962 27.0764C43.3126 27.0764 43.2802 27.1133 43.2717 27.1918C43.2632 27.2703 43.2717 27.3242 43.2717 27.3888V32.5386C43.2717 32.6048 43.2717 32.671 43.2717 32.7356C43.2632 32.8341 43.2359 32.8649 43.1318 32.8895C43.0349 32.9092 42.936 32.9206 42.8367 32.9234C42.4512 32.9234 42.0657 32.9234 41.6802 32.9234C41.5875 32.92 41.4955 32.9082 41.4055 32.888C41.3722 32.8832 41.3419 32.8679 41.32 32.8448C41.2981 32.8216 41.2861 32.7922 41.2861 32.7618C41.2861 32.7141 41.2861 32.6664 41.2861 32.6171V25.4942C41.2861 25.4588 41.2861 25.4218 41.2861 25.3864C41.284 25.3623 41.2874 25.3379 41.2963 25.315C41.3051 25.2921 41.3191 25.2711 41.3373 25.2533C41.3556 25.2355 41.3778 25.2213 41.4024 25.2117C41.4271 25.202 41.4537 25.1971 41.4806 25.1971C41.5539 25.1933 41.6273 25.1933 41.7006 25.1971H48.9982C49.2706 25.2021 49.5419 25.2304 49.8084 25.2818C50.008 25.3302 50.1952 25.4133 50.3594 25.5265C50.648 25.721 50.8818 25.9741 51.0418 26.2653C51.2102 26.551 51.3293 26.8582 51.3949 27.1764C51.4583 27.4952 51.4761 27.8201 51.4478 28.143C51.4294 28.34 51.3871 28.5346 51.3215 28.7232C51.2266 29.0237 51.0798 29.3088 50.8865 29.5682C50.7772 29.7115 50.6489 29.8423 50.5044 29.9576C50.1981 30.2186 49.8046 30.3809 49.3854 30.4193C49.2007 30.437 49.0151 30.4462 48.8293 30.447C48.7501 30.436 48.6691 30.4489 48.599 30.4839Z" fill="#DFDFE0"/>
<path d="M33.8981 30.0468C33.8919 30.0637 33.8879 30.0813 33.8862 30.0991C33.8862 30.9446 33.8862 31.7895 33.8862 32.634C33.8862 32.6525 33.8862 32.6709 33.8862 32.6879C33.8862 32.8418 33.8401 32.891 33.6712 32.9172C33.6315 32.9202 33.5916 32.9202 33.5518 32.9172H32.1957C32.1383 32.916 32.0812 32.9099 32.0251 32.8987C31.982 32.892 31.9426 32.8722 31.9138 32.8425C31.8849 32.8128 31.8682 32.7751 31.8665 32.7356C31.8665 32.6879 31.8665 32.6401 31.8665 32.5924V25.5126C31.8665 25.488 31.8665 25.4633 31.8665 25.4402C31.875 25.2694 31.9501 25.2001 32.1326 25.1894H33.5484C33.582 25.1878 33.6155 25.1878 33.6491 25.1894C33.7064 25.1875 33.7625 25.2051 33.8061 25.2387C33.8497 25.2724 33.8777 25.3196 33.8845 25.371C33.8959 25.4423 33.9004 25.5144 33.8981 25.5865C33.8981 26.3237 33.8981 27.0609 33.8981 27.7981C33.8981 27.852 33.8981 27.9059 33.8981 27.9521C33.9067 28.0567 33.9391 28.0844 34.0602 28.0921H38.2872C38.3666 28.106 38.4488 28.094 38.5192 28.0583C38.5247 28.0411 38.5287 28.0236 38.5312 28.0059C38.5312 27.1779 38.5312 26.3504 38.5312 25.5234C38.5277 25.4819 38.5277 25.4402 38.5312 25.3987C38.5331 25.3438 38.5576 25.2916 38.5998 25.252C38.6421 25.2125 38.6991 25.1885 38.7598 25.1848C38.7927 25.1825 38.8258 25.1825 38.8587 25.1848C39.3244 25.1848 39.7901 25.1848 40.2558 25.1848C40.3134 25.1854 40.3707 25.1926 40.4264 25.2063C40.459 25.214 40.4881 25.2308 40.5095 25.2543C40.5309 25.2778 40.5436 25.3068 40.5458 25.3371C40.5492 25.3848 40.5492 25.4326 40.5458 25.4803C40.5458 27.8597 40.5458 30.2397 40.5458 32.6201V32.6386C40.5458 32.8464 40.5202 32.8741 40.2728 32.911C40.22 32.9149 40.167 32.9149 40.1142 32.911C39.7218 32.911 39.3295 32.911 38.9372 32.911C38.8314 32.9073 38.7263 32.8944 38.6233 32.8726C38.5936 32.8667 38.567 32.8519 38.5479 32.8307C38.5287 32.8094 38.518 32.783 38.5175 32.7556C38.5175 32.7079 38.5175 32.6602 38.5175 32.6124C38.5175 31.8501 38.5175 31.0887 38.5175 30.3284C38.5175 30.2438 38.5312 30.1607 38.5363 30.0776C38.5392 30.0531 38.5313 30.0286 38.5144 30.0093C38.4975 29.9901 38.4729 29.9775 38.4459 29.9744C38.4002 29.9675 38.354 29.9644 38.3077 29.9652H36.8731C36.8397 29.9613 36.8059 29.9613 36.7725 29.9652C36.5627 29.9957 36.35 30.0055 36.1379 29.9944H34.1216C34.0426 29.9871 33.9632 30.0057 33.8981 30.0468Z" fill="#DFDFE0"/>
<path d="M30.6929 25.1909C30.7662 25.1909 30.8396 25.1909 30.913 25.1909C30.9611 25.1921 31.0073 25.208 31.0442 25.2359C31.081 25.2638 31.1063 25.3022 31.1159 25.3448C31.1315 25.3902 31.1395 25.4374 31.1398 25.4849C31.1398 25.9235 31.1398 26.3606 31.1398 26.7992C31.1398 26.8162 31.1398 26.8346 31.1398 26.8531C31.1228 27.007 31.0665 27.0578 30.884 27.064H27.9704C27.9043 27.0632 27.8382 27.0663 27.7725 27.0732C27.7491 27.0746 27.727 27.0837 27.7104 27.0987C27.6937 27.1137 27.6837 27.1336 27.6821 27.1548C27.6748 27.2058 27.6714 27.2572 27.6719 27.3087C27.6719 27.7042 27.6719 28.1013 27.6719 28.4969V32.5616C27.6719 32.6216 27.6719 32.6817 27.6719 32.7417C27.6725 32.7783 27.6585 32.814 27.6326 32.8422C27.6066 32.8704 27.5703 32.8894 27.5303 32.8956C27.4744 32.9088 27.4173 32.917 27.3597 32.9202H25.9643C25.8909 32.9238 25.8179 32.9078 25.7545 32.8741C25.724 32.8596 25.699 32.8372 25.6828 32.8097C25.6667 32.7823 25.6602 32.751 25.6641 32.7201C25.6743 32.4816 25.6846 32.2415 25.6846 32.0014C25.6846 30.4623 25.6846 28.9232 25.6846 27.3841C25.6846 27.3195 25.6846 27.2517 25.6846 27.1871C25.6846 27.1224 25.6334 27.0747 25.5396 27.0763C25.2939 27.0763 25.0483 27.0886 24.8027 27.0932C24.776 27.0955 24.7491 27.0955 24.7225 27.0932C24.4593 27.0591 24.193 27.0488 23.9276 27.0624H22.4111C22.3449 27.064 22.2788 27.0609 22.2132 27.0532C22.1769 27.0482 22.1433 27.0328 22.1175 27.0092C22.0917 26.9856 22.075 26.9552 22.0699 26.9224C22.0623 26.875 22.0588 26.8271 22.0597 26.7792V25.5018C22.0588 25.4539 22.0622 25.406 22.0699 25.3586C22.0726 25.3128 22.0952 25.2697 22.1329 25.2389C22.1706 25.208 22.2203 25.1919 22.2712 25.194C22.336 25.194 22.4042 25.194 22.4708 25.194L30.6929 25.1909Z" fill="#DFDFE0"/>
<path d="M64.0186 6.2276H60.827C60.7605 6.23067 60.6939 6.23067 60.6274 6.2276C60.6073 6.22857 60.5872 6.2256 60.5684 6.2189C60.5496 6.21219 60.5327 6.20192 60.5188 6.18876C60.5049 6.1756 60.4942 6.15988 60.4877 6.14268C60.4811 6.12547 60.4787 6.10718 60.4807 6.08907C60.4714 6.01122 60.4778 5.93248 60.4995 5.85667C60.5474 5.70111 60.5794 5.54192 60.595 5.38109C60.625 5.28079 60.6314 5.17594 60.6138 5.07327C60.6098 5.05547 60.6128 5.03696 60.6223 5.02093C60.6722 4.87847 60.7037 4.73128 60.7161 4.58229C60.7192 4.55217 60.7249 4.52233 60.7332 4.49303C60.769 4.40222 60.7758 4.30525 60.8065 4.21444C60.8804 3.93581 60.9374 3.65373 60.9771 3.36948C61.0385 3.08629 61.088 2.80309 61.1341 2.51836C61.1482 2.38732 61.1744 2.2576 61.2125 2.13052C61.2215 2.09517 61.2261 2.05903 61.2262 2.02277C61.2237 1.98719 61.2266 1.95148 61.2347 1.91658C61.2908 1.72575 61.3302 1.53122 61.3524 1.3348C61.4036 1.12394 61.4292 0.910004 61.4684 0.69607C61.4974 0.531386 61.5264 0.36517 61.5656 0.202025C61.6049 0.038881 61.6629 0.0111713 61.8249 0.00347577H68.3071C68.3798 -0.00115859 68.4527 -0.00115859 68.5254 0.00347577C68.6773 0.0204058 68.7387 0.0912126 68.7182 0.223575C68.6943 0.377485 68.6619 0.543705 68.6312 0.702232C68.5971 0.891541 68.563 1.08084 68.5271 1.26861C68.5228 1.31016 68.5148 1.35133 68.5033 1.39174C68.4928 1.43394 68.4673 1.47187 68.4306 1.49968C68.3939 1.52749 68.3481 1.54365 68.3003 1.54565C68.2474 1.54565 68.1945 1.54565 68.1399 1.54565H64.9961C64.8903 1.54565 64.7845 1.52718 64.6788 1.52411C64.4673 1.52411 64.254 1.52411 64.0425 1.52411C63.9026 1.52411 63.7645 1.54566 63.6263 1.55028C63.4881 1.55489 63.3465 1.55028 63.2066 1.55028C63.1607 1.54722 63.1145 1.54722 63.0685 1.55028C63.0415 1.55281 63.0162 1.56343 62.9968 1.58045C62.9773 1.59747 62.9647 1.61991 62.961 1.64416C62.9049 1.8596 62.8689 2.07893 62.8535 2.29982C62.8535 2.36138 62.874 2.3937 62.9405 2.39832C63.071 2.42038 63.2042 2.42556 63.3363 2.41371C63.4016 2.4037 63.468 2.4006 63.5342 2.40446H65.8285C65.9275 2.40446 66.0264 2.41832 66.1253 2.42447C66.2243 2.43063 66.2959 2.4368 66.3846 2.4368H67.6213C67.681 2.43373 67.7408 2.43373 67.8005 2.4368C67.8875 2.44757 67.942 2.49528 67.925 2.5707C67.9178 2.72675 67.8914 2.88159 67.8465 3.03243C67.839 3.04883 67.8333 3.06583 67.8295 3.08321C67.797 3.26021 67.768 3.4372 67.7356 3.61419C67.727 3.67392 67.7139 3.73306 67.6964 3.79119C67.6606 3.90201 67.6145 3.93433 67.4815 3.9451C67.4166 3.9451 67.3501 3.9451 67.2836 3.9451H62.8757C62.8024 3.9451 62.729 3.9451 62.6557 3.9451C62.5823 3.9451 62.5328 3.97897 62.5192 4.05285C62.4783 4.2714 62.439 4.48994 62.4032 4.71003C62.3986 4.72474 62.398 4.74023 62.4013 4.75521C62.4046 4.7702 62.4118 4.78426 62.4222 4.79627C62.4327 4.80827 62.4462 4.81786 62.4616 4.82428C62.4769 4.83069 62.4937 4.83373 62.5107 4.83317C62.5772 4.83624 62.6438 4.83624 62.7103 4.83317H67.4559C67.5292 4.82932 67.6026 4.82932 67.6759 4.83317C67.6996 4.83282 67.723 4.83736 67.7444 4.84643C67.7658 4.85549 67.7846 4.86884 67.7994 4.88547C67.8142 4.9021 67.8246 4.92157 67.8298 4.94238C67.835 4.96319 67.8349 4.98479 67.8295 5.00554C67.8141 5.13637 67.7885 5.26566 67.7663 5.39648C67.7442 5.5273 67.7169 5.69199 67.6896 5.83974C67.6811 5.89361 67.6691 5.94594 67.6555 5.99365C67.6482 6.05141 67.616 6.10427 67.5659 6.14083C67.5158 6.1774 67.4518 6.19474 67.3877 6.18912C67.3279 6.18912 67.2682 6.18912 67.2085 6.18912L64.0186 6.2276Z" fill="#DFDFE0"/>
<path d="M72.5033 6.40763H70.1305C70.0759 6.40763 70.023 6.40763 69.9702 6.40763C69.82 6.40763 69.7808 6.36762 69.7723 6.23679C69.7706 6.20706 69.7706 6.17727 69.7723 6.14753V2.65685C69.7721 2.60529 69.7766 2.55381 69.7859 2.50294C69.7903 2.4727 69.8064 2.44484 69.8314 2.42428C69.8564 2.40372 69.8886 2.39178 69.9224 2.39059C69.9616 2.39059 70.0026 2.39059 70.0418 2.39059C70.248 2.39907 70.4546 2.39135 70.6593 2.3675C70.692 2.36216 70.7255 2.36216 70.7583 2.3675C70.8367 2.3798 70.9169 2.3798 70.9954 2.3675C71.0526 2.3612 71.1106 2.3654 71.166 2.37982C71.2087 2.38923 71.2469 2.41102 71.2746 2.44188C71.3024 2.47274 71.3181 2.51095 71.3195 2.55066C71.3195 2.60915 71.3195 2.66916 71.3195 2.72918V4.60073C71.3194 4.66036 71.3229 4.71996 71.3297 4.77927C71.3323 4.80052 71.3428 4.82034 71.3596 4.83545C71.3763 4.85056 71.3983 4.86006 71.4218 4.86239C71.4682 4.86802 71.5149 4.87058 71.5617 4.87007C72.6318 4.87007 73.702 4.87007 74.7721 4.87007C74.8649 4.86823 74.9571 4.85635 75.0467 4.83468C75.112 4.82026 75.1712 4.78875 75.2167 4.74412C75.2622 4.69949 75.2921 4.64371 75.3026 4.5838C75.3269 4.49087 75.3412 4.39604 75.3452 4.30061C75.3452 3.58237 75.3452 2.86412 75.3452 2.14588C75.3429 2.05619 75.3304 1.96697 75.3077 1.87962C75.297 1.79792 75.2547 1.72225 75.1882 1.66594C75.1218 1.60963 75.0354 1.5763 74.9444 1.5718C74.8649 1.56716 74.7851 1.56716 74.7056 1.5718H70.0452C69.9725 1.57562 69.8996 1.57562 69.8269 1.5718C69.7816 1.5718 69.7382 1.55557 69.7063 1.52671C69.6743 1.49784 69.6563 1.45871 69.6563 1.41789C69.652 1.37025 69.652 1.32238 69.6563 1.27474C69.6563 0.966923 69.6563 0.6745 69.6563 0.375915C69.6563 0.0773303 69.7416 0.0219168 70.0384 0.0234559C70.963 0.0234559 71.8875 0.0234559 72.8104 0.0234559H74.7567C75.1239 0.0238334 75.4862 0.0996349 75.8161 0.245096C75.9472 0.303813 76.0689 0.378366 76.1777 0.466717C76.4463 0.665266 76.6605 0.917021 76.8037 1.20241C76.86 1.3163 76.8907 1.44096 76.9453 1.55639C77.0202 1.74883 77.0493 1.95337 77.0306 2.15664V4.44066C77.0449 4.56663 77.0231 4.6938 76.9675 4.81005C76.9538 4.84383 76.9447 4.87897 76.9402 4.91471C76.8298 5.29063 76.6033 5.6305 76.2871 5.8948C75.9709 6.1591 75.578 6.33694 75.1542 6.40763C75.0624 6.42225 74.9693 6.42844 74.8761 6.4261L72.5033 6.40763Z" fill="#DFDFE0"/>
</svg>
