<svg width="12" height="12" viewBox="0 0 12 12" fill="none" xmlns="http://www.w3.org/2000/svg">
<path d="M3.80005 2.44998L1.25005 5.34998C0.900048 5.74998 0.900048 6.29998 1.25005 6.69998L3.80005 9.44998C4.15005 9.84998 4.80005 9.89998 5.20005 9.49998C5.60005 9.09998 5.65005 8.49998 5.25005 8.09998L4.25005 6.99998L10.0001 6.99998C10.5501 6.99998 11.0001 6.54998 11.0001 5.99998C11.0001 5.44998 10.5501 4.99998 10.0001 4.99998L4.20005 4.99998L5.30005 3.74998C5.45005 3.54998 5.55005 3.29998 5.55005 3.09999C5.55005 2.79998 5.45005 2.54998 5.20005 2.34999C4.80005 2 4.20005 2.04998 3.80005 2.44998Z" fill="#98969B"/>
</svg>
