<svg width="18" height="18" viewBox="0 0 36 36" fill="none" xmlns="http://www.w3.org/2000/svg">
<path d="M28.815 4H30.811V5H28.815V4Z" fill="#66757F"/>
<path d="M2 12V32C2 34.209 3.791 36 6 36H30C32.209 36 34 34.209 34 32V12H2Z" fill="#CCD6DD"/>
<path d="M30 4H6C3.791 4 2 5.791 2 8V13H34V8C34 5.791 32.209 4 30 4Z" fill="#DD2E44"/>
<path d="M8.836 8.73191C8.134 8.73191 7.565 8.06591 7.565 7.24291C7.565 6.42091 8.134 5.75391 8.836 5.75391C9.537 5.75391 10.106 6.42091 10.106 7.24291C10.106 8.06491 9.537 8.73191 8.836 8.73191ZM14.836 8.73191C14.134 8.73191 13.565 8.06591 13.565 7.24291C13.565 6.42091 14.134 5.75391 14.836 5.75391C15.537 5.75391 16.106 6.42091 16.106 7.24291C16.106 8.06491 15.537 8.73191 14.836 8.73191ZM20.836 8.73191C20.134 8.73191 19.565 8.06591 19.565 7.24291C19.565 6.42091 20.134 5.75391 20.836 5.75391C21.537 5.75391 22.107 6.42091 22.107 7.24291C22.106 8.06491 21.537 8.73191 20.836 8.73191ZM26.836 8.73191C26.134 8.73191 25.565 8.06591 25.565 7.24291C25.565 6.42091 26.134 5.75391 26.836 5.75391C27.537 5.75391 28.107 6.42091 28.107 7.24291C28.106 8.06491 27.537 8.73191 26.836 8.73191Z" fill="#292F33"/>
<path d="M27.315 0.179688C26.038 0.179688 24.932 0.981687 24.321 2.14969C23.715 1.00669 22.604 0.179688 21.315 0.179688C20.038 0.179688 18.932 0.981687 18.321 2.14969C17.715 1.00669 16.604 0.179688 15.315 0.179688C14.038 0.179688 12.932 0.981687 12.321 2.14969C11.715 1.00669 10.604 0.179688 9.315 0.179688C7.381 0.179688 5.815 1.99869 5.815 4.18469C5.815 6.03869 6.86 7.55569 8.384 8.11069C9.143 8.38569 9.608 7.66369 9.543 7.08469C9.488 6.60469 9.169 6.29169 8.814 6.06669C8.329 5.75969 7.814 5.05869 7.814 4.18969C7.814 3.08569 8.485 2.09469 9.314 2.09469C10.143 2.09469 10.814 2.99969 10.814 3.99969H11.83C11.827 4.06169 11.814 4.12069 11.814 4.18369C11.814 6.03769 12.859 7.55469 14.383 8.10969C15.142 8.38469 15.607 7.66269 15.542 7.08369C15.487 6.60469 15.168 6.29169 14.813 6.06669C14.328 5.75969 13.813 5.05869 13.813 4.18969C13.813 3.08569 14.484 2.09469 15.313 2.09469C16.142 2.09469 16.815 3.00069 16.815 4.00069H17.831C17.828 4.06269 17.815 4.12169 17.815 4.18469C17.815 6.03869 18.86 7.55569 20.384 8.11069C21.143 8.38569 21.608 7.66369 21.543 7.08469C21.488 6.60569 21.169 6.29269 20.814 6.06769C20.329 5.76069 19.814 5.05969 19.814 4.19069C19.814 3.08669 20.485 2.09569 21.314 2.09569C22.143 2.09569 22.815 3.00069 22.815 4.00069H23.831C23.828 4.06269 23.815 4.12169 23.815 4.18469C23.815 6.03869 24.86 7.55569 26.384 8.11069C27.143 8.38569 27.608 7.66369 27.543 7.08469C27.488 6.60569 27.169 6.29269 26.814 6.06769C26.329 5.76069 25.814 5.05969 25.814 4.19069C25.814 3.08669 26.485 2.09569 27.314 2.09569C28.143 2.09569 28.815 3.00069 28.815 4.00069H30.811C30.79 2.00069 29.235 0.179688 27.315 0.179688Z" fill="#66757F"/>
<path d="M11 15H15V19H11V15ZM16 15H20V19H16V15ZM21 15H25V19H21V15ZM26 15H30V19H26V15ZM6 20H10V24H6V20ZM11 20H15V24H11V20ZM16 20H20V24H16V20ZM21 20H25V24H21V20ZM26 20H30V24H26V20ZM6 25H10V29H6V25ZM11 25H15V29H11V25ZM16 25H20V29H16V25ZM21 25H25V29H21V25ZM26 25H30V29H26V25ZM6 30H10V34H6V30ZM11 30H15V34H11V30ZM16 30H20V34H16V30Z" fill="white"/>
</svg>
