<svg width="127" height="32" viewBox="0 0 127 32" fill="none" xmlns="http://www.w3.org/2000/svg">
<rect width="127" height="32" rx="4" fill="#2A2B2B"/>
<path d="M19.0833 10.75H10.9167C10.2723 10.75 9.75 11.2723 9.75 11.9167V20.0833C9.75 20.7277 10.2723 21.25 10.9167 21.25H19.0833C19.7277 21.25 20.25 20.7277 20.25 20.0833V11.9167C20.25 11.2723 19.7277 10.75 19.0833 10.75Z" stroke="#98969B" stroke-width="1.16667" stroke-linecap="round" stroke-linejoin="round"/>
<path d="M12.9584 14.8334C13.4416 14.8334 13.8334 14.4416 13.8334 13.9584C13.8334 13.4751 13.4416 13.0834 12.9584 13.0834C12.4751 13.0834 12.0834 13.4751 12.0834 13.9584C12.0834 14.4416 12.4751 14.8334 12.9584 14.8334Z" stroke="#98969B" stroke-width="1.16667" stroke-linecap="round" stroke-linejoin="round"/>
<path d="M20.25 17.75L17.3333 14.8334L10.9166 21.25" stroke="#98969B" stroke-width="1.16667" stroke-linecap="round" stroke-linejoin="round"/>
<path d="M38.1772 14C37.8533 12.2102 36.4215 11.1534 34.6658 11.1534C32.4329 11.1534 30.8136 12.875 30.8136 15.6364C30.8136 18.3977 32.4329 20.1193 34.6658 20.1193C36.4215 20.1193 37.8533 19.0625 38.1772 17.2727H37.1204C36.8647 18.483 35.8249 19.1307 34.6658 19.1307C33.0806 19.1307 31.8363 17.9034 31.8363 15.6364C31.8363 13.3693 33.0806 12.142 34.6658 12.142C35.8249 12.142 36.8647 12.7898 37.1204 14H38.1772ZM40.7543 16.0625C40.7543 14.9205 41.483 14.2727 42.4759 14.2727C43.4219 14.2727 43.9929 14.8693 43.9929 15.9091V20H44.9986V15.8409C44.9986 14.1577 44.1037 13.3693 42.7656 13.3693C41.7344 13.3693 41.1463 13.7997 40.8395 14.4773H40.7543V11.2727H39.7486V20H40.7543V16.0625ZM48.7646 20.1534C49.9066 20.1534 50.5032 19.5398 50.7077 19.1136H50.7589V20H51.7646V15.6875C51.7646 13.608 50.1793 13.3693 49.3441 13.3693C48.3555 13.3693 47.2305 13.7102 46.7191 14.9034L47.6737 15.2443C47.8952 14.767 48.4194 14.2557 49.3782 14.2557C50.3029 14.2557 50.7589 14.7457 50.7589 15.5852V15.6193C50.7589 16.1051 50.2646 16.0625 49.0714 16.2159C47.8569 16.3736 46.5316 16.642 46.5316 18.142C46.5316 19.4205 47.5202 20.1534 48.7646 20.1534ZM48.918 19.25C48.1168 19.25 47.5373 18.892 47.5373 18.1932C47.5373 17.4261 48.2362 17.1875 49.0202 17.0852C49.4464 17.0341 50.5884 16.9148 50.7589 16.7102V17.6307C50.7589 18.4489 50.1112 19.25 48.918 19.25ZM54.6058 16.0625C54.6058 14.9205 55.3132 14.2727 56.2763 14.2727C57.2095 14.2727 57.7763 14.8821 57.7763 15.9091V20H58.782V15.8409C58.782 14.1705 57.8913 13.3693 56.5661 13.3693C55.5774 13.3693 54.9638 13.8125 54.657 14.4773H54.5717V13.4545H53.6001V20H54.6058V16.0625ZM63.2617 22.5909C64.8299 22.5909 66.0913 21.875 66.0913 20.1875V13.4545H65.1197V14.4943H65.0174C64.7958 14.1534 64.3867 13.3693 63.1083 13.3693C61.4549 13.3693 60.3129 14.6818 60.3129 16.6932C60.3129 18.7386 61.506 19.8977 63.0913 19.8977C64.3697 19.8977 64.7788 19.1477 65.0004 18.7898H65.0856V20.1193C65.0856 21.2102 64.3185 21.7045 63.2617 21.7045C62.0728 21.7045 61.6552 21.0781 61.3867 20.7159L60.5856 21.2784C60.9947 21.9645 61.8001 22.5909 63.2617 22.5909ZM63.2276 18.9943C61.9663 18.9943 61.3185 18.0398 61.3185 16.6761C61.3185 15.3466 61.9492 14.2727 63.2276 14.2727C64.4549 14.2727 65.1026 15.2614 65.1026 16.6761C65.1026 18.125 64.4379 18.9943 63.2276 18.9943ZM70.6765 20.1364C72.006 20.1364 72.9776 19.4716 73.2844 18.483L72.3129 18.2102C72.0572 18.892 71.4648 19.233 70.6765 19.233C69.4961 19.233 68.6822 18.4702 68.6353 17.0682H73.3867V16.642C73.3867 14.2045 71.9379 13.3693 70.5742 13.3693C68.8015 13.3693 67.6254 14.767 67.6254 16.7784C67.6254 18.7898 68.7844 20.1364 70.6765 20.1364ZM68.6353 16.1989C68.7035 15.1804 69.4237 14.2727 70.5742 14.2727C71.6651 14.2727 72.364 15.0909 72.364 16.1989H68.6353ZM78.4279 20H79.4847V16.0966H84.1381V20H85.195V11.2727H84.1381V15.1591H79.4847V11.2727H78.4279V20ZM89.9187 20.1364C91.2482 20.1364 92.2198 19.4716 92.5266 18.483L91.555 18.2102C91.2994 18.892 90.707 19.233 89.9187 19.233C88.7383 19.233 87.9244 18.4702 87.8775 17.0682H92.6289V16.642C92.6289 14.2045 91.18 13.3693 89.8164 13.3693C88.0437 13.3693 86.8675 14.767 86.8675 16.7784C86.8675 18.7898 88.0266 20.1364 89.9187 20.1364ZM87.8775 16.1989C87.9457 15.1804 88.6658 14.2727 89.8164 14.2727C90.9073 14.2727 91.6062 15.0909 91.6062 16.1989H87.8775ZM96.0849 20.1534C97.2269 20.1534 97.8235 19.5398 98.0281 19.1136H98.0792V20H99.0849V15.6875C99.0849 13.608 97.4996 13.3693 96.6644 13.3693C95.6758 13.3693 94.5508 13.7102 94.0394 14.9034L94.994 15.2443C95.2156 14.767 95.7397 14.2557 96.6985 14.2557C97.6232 14.2557 98.0792 14.7457 98.0792 15.5852V15.6193C98.0792 16.1051 97.5849 16.0625 96.3917 16.2159C95.1772 16.3736 93.8519 16.642 93.8519 18.142C93.8519 19.4205 94.8406 20.1534 96.0849 20.1534ZM96.2383 19.25C95.4371 19.25 94.8576 18.892 94.8576 18.1932C94.8576 17.4261 95.5565 17.1875 96.3406 17.0852C96.7667 17.0341 97.9087 16.9148 98.0792 16.7102V17.6307C98.0792 18.4489 97.4315 19.25 96.2383 19.25ZM103.392 20.1364C104.653 20.1364 105.08 19.3523 105.301 18.9943H105.42V20H106.392V11.2727H105.386V14.4943H105.301C105.08 14.1534 104.688 13.3693 103.409 13.3693C101.756 13.3693 100.614 14.6818 100.614 16.7443C100.614 18.8239 101.756 20.1364 103.392 20.1364ZM103.528 19.233C102.267 19.233 101.619 18.125 101.619 16.7273C101.619 15.3466 102.25 14.2727 103.528 14.2727C104.756 14.2727 105.403 15.2614 105.403 16.7273C105.403 18.2102 104.739 19.233 103.528 19.233ZM111.118 20.1364C112.447 20.1364 113.419 19.4716 113.726 18.483L112.754 18.2102C112.499 18.892 111.906 19.233 111.118 19.233C109.938 19.233 109.124 18.4702 109.077 17.0682H113.828V16.642C113.828 14.2045 112.379 13.3693 111.016 13.3693C109.243 13.3693 108.067 14.767 108.067 16.7784C108.067 18.7898 109.226 20.1364 111.118 20.1364ZM109.077 16.1989C109.145 15.1804 109.865 14.2727 111.016 14.2727C112.107 14.2727 112.805 15.0909 112.805 16.1989H109.077ZM115.358 20H116.364V15.858C116.364 14.9716 117.062 14.3239 118.017 14.3239C118.286 14.3239 118.562 14.375 118.631 14.392V13.3693C118.516 13.3608 118.251 13.3523 118.102 13.3523C117.318 13.3523 116.636 13.7955 116.398 14.4432H116.33V13.4545H115.358V20Z" fill="#98969B"/>
</svg>
