<svg width="18" height="18" viewBox="0 0 18 18" fill="none" xmlns="http://www.w3.org/2000/svg">
<path d="M9 0.5C4.0295 0.5 0 3.634 0 7.5C0 9.684 1.287 11.634 3.302 12.9175C3.04 14.072 2.4295 15.7845 1 17.5C3.879 17.02 5.7195 15.6195 6.858 14.292C7.546 14.423 8.2605 14.5 9 14.5C13.9705 14.5 18 11.366 18 7.5C18 3.634 13.9705 0.5 9 0.5Z" fill="#A6C4DA"/>
<path d="M9 8.5C9.55228 8.5 10 8.05228 10 7.5C10 6.94772 9.55228 6.5 9 6.5C8.44772 6.5 8 6.94772 8 7.5C8 8.05228 8.44772 8.5 9 8.5Z" fill="#2A6797"/>
<path d="M13 8.5C13.5523 8.5 14 8.05228 14 7.5C14 6.94772 13.5523 6.5 13 6.5C12.4477 6.5 12 6.94772 12 7.5C12 8.05228 12.4477 8.5 13 8.5Z" fill="#2A6797"/>
<path d="M5 8.5C5.55228 8.5 6 8.05228 6 7.5C6 6.94772 5.55228 6.5 5 6.5C4.44772 6.5 4 6.94772 4 7.5C4 8.05228 4.44772 8.5 5 8.5Z" fill="#2A6797"/>
</svg>
