<svg width="18" height="16.5" viewBox="0 0 36 36" fill="none" xmlns="http://www.w3.org/2000/svg">
<path d="M29 20.7297V18.7667C30 17.7367 31.914 15.8767 32.391 13.4937C32.533 13.5727 32.446 13.6237 32.604 13.6237C33.362 13.6237 33.86 12.6407 33.86 11.4267C33.86 10.2327 33.204 9.26567 32.461 9.23567C32.604 8.71967 32.673 8.02967 32.673 7.14367C32.673 4.18767 30.124 0.638672 24.42 0.638672C19.352 0.638672 16.176 4.18767 16.176 7.14367C16.176 8.00167 16.227 8.70567 16.318 9.25067C15.621 9.35567 15.071 10.2837 15.071 11.4257C15.071 12.6397 15.685 13.6227 16.444 13.6227C16.601 13.6227 16.375 13.5717 16.516 13.4927C16.993 15.8767 19 17.7357 20 18.7667V20.6137C16 21.1057 13 23.2417 13 25.3787V26.1887C13 27.0007 13.823 27.0007 14.634 27.0007H33.364C34.177 27.0007 35 27.0007 35 26.1887V25.3787C35 23.3777 32 21.3817 29 20.7297Z" fill="#55ACEE"/>
<path d="M17 28.7297V26.7667C18 25.7367 19.914 23.8767 20.391 21.4937C20.533 21.5727 20.446 21.6237 20.604 21.6237C21.362 21.6237 21.86 20.6407 21.86 19.4267C21.86 18.2327 21.204 17.2657 20.461 17.2357C20.604 16.7197 20.673 16.0297 20.673 15.1437C20.673 12.1877 18.124 8.63867 12.42 8.63867C7.351 8.63867 4.176 12.1877 4.176 15.1437C4.176 16.0017 4.227 16.7057 4.318 17.2507C3.621 17.3557 3.071 18.2837 3.071 19.4257C3.071 20.6397 3.685 21.6227 4.444 21.6227C4.601 21.6227 4.375 21.5717 4.516 21.4927C4.993 23.8767 7 25.7357 8 26.7667V28.6137C4 29.1057 1 31.2417 1 33.3787V34.1897C1 35.0007 1.823 35.0007 2.634 35.0007H21.364C22.177 35.0007 23 35.0007 23 34.1887V33.3777C23 31.3777 20 29.3817 17 28.7297Z" fill="#226699"/>
</svg>
