<svg width="18" height="16.5" viewBox="0 0 36 36" fill="none" xmlns="http://www.w3.org/2000/svg">
<path d="M36 33.5C36 34.328 35.328 35 34.5 35H1.5C0.672 35 0 34.328 0 33.5C0 32.672 0.672 32 1.5 32H34.5C35.328 32 36 32.672 36 33.5Z" fill="#5C913B"/>
<path d="M12.344 14.7012H10.344C10.068 14.7012 9.84399 14.4772 9.84399 14.2012V7.20117C9.84399 6.92517 10.068 6.70117 10.344 6.70117H12.344C12.62 6.70117 12.844 6.92517 12.844 7.20117V14.2012C12.844 14.4772 12.62 14.7012 12.344 14.7012Z" fill="#A0041E"/>
<path d="M5.94196 32C5.80496 27.343 5.43596 24 4.99996 24C4.56496 24 4.19596 27.343 4.05896 32H5.94196Z" fill="#FFCC4D"/>
<path d="M10 18.731C10 24.306 7.762 26 5 26C2.239 26 0 24.306 0 18.731C0 13.154 4 5 5 5C6 5 10 13.154 10 18.731Z" fill="#77B255"/>
<path d="M8 16L21 3L34 16V32H8V16Z" fill="#FFE8B6"/>
<path d="M21 16H22V32H21V16Z" fill="#FFCC4D"/>
<path d="M34 17.0002C33.744 17.0002 33.488 16.9023 33.293 16.7073L21 4.41425L8.70701 16.7073C8.31601 17.0983 7.68401 17.0983 7.29301 16.7073C6.90201 16.3163 6.90201 15.6842 7.29301 15.2933L20.293 2.29325C20.684 1.90225 21.316 1.90225 21.707 2.29325L34.707 15.2933C35.098 15.6842 35.098 16.3163 34.707 16.7073C34.512 16.9023 34.256 17.0002 34 17.0002Z" fill="#66757F"/>
<path d="M21 17.0002C20.744 17.0002 20.488 16.9023 20.293 16.7073C19.902 16.3163 19.902 15.6842 20.293 15.2933L26.793 8.79325C27.184 8.40225 27.816 8.40225 28.207 8.79325C28.598 9.18425 28.598 9.81625 28.207 10.2072L21.707 16.7073C21.512 16.9023 21.256 17.0002 21 17.0002Z" fill="#66757F"/>
<path d="M13 26H17V32H13V26Z" fill="#C1694F"/>
<path d="M13 17H17V21H13V17ZM25.5 17H29.5V21H25.5V17ZM25.5 26H29.5V30H25.5V26Z" fill="#55ACEE"/>
<path d="M10.625 29.9906C10.625 31.6036 9.76702 32.0936 8.70802 32.0936C7.65002 32.0936 6.79102 31.6036 6.79102 29.9906C6.79102 28.3776 8.32402 26.0176 8.70802 26.0176C9.09202 26.0176 10.625 28.3766 10.625 29.9906ZM35.875 29.9906C35.875 31.6036 35.017 32.0936 33.958 32.0936C32.9 32.0936 32.041 31.6036 32.041 29.9906C32.041 28.3776 33.574 26.0176 33.958 26.0176C34.342 26.0176 35.875 28.3766 35.875 29.9906Z" fill="#77B255"/>
</svg>
