<svg width="18" height="18" viewBox="0 0 18 18" fill="none" xmlns="http://www.w3.org/2000/svg">
<path d="M15.6872 5.11253L10.8872 0.312533C10.6947 0.12 10.4275 0 10.1326 0C9.54378 0 9.06645 0.477867 9.06591 1.06667C9.06591 1.36107 9.18538 1.62827 9.37845 1.82133L7.32031 3.87947L12.1203 8.67947L14.1784 6.62133C14.3715 6.81387 14.6382 6.93333 14.9326 6.93333C15.5214 6.93333 15.9998 6.45547 15.9992 5.86667C15.9992 5.57227 15.8798 5.3056 15.6872 5.11253Z" fill="#E1E8ED"/>
<path d="M10.1333 0H2.13333C0.9552 0 0 0.9552 0 2.13333V17.0667C0 18.2448 0.9552 19.2 2.13333 19.2H13.8667C15.0448 19.2 16 18.2448 16 17.0667V5.86667H11.2C10.6667 5.86667 10.1333 5.33333 10.1333 4.8V0Z" fill="#CCD6DD"/>
<path d="M10.1328 0H9.06615V4.8C9.06615 5.97813 10.0213 6.93333 11.1995 6.93333H15.9995V5.86667H11.1995C10.6661 5.86667 10.1328 5.33333 10.1328 4.8V0ZM7.46615 4.26667C7.46615 4.56107 7.22721 4.8 6.93281 4.8H2.66615C2.37175 4.8 2.13281 4.56107 2.13281 4.26667C2.13281 3.97227 2.37175 3.73333 2.66615 3.73333H6.93281C7.22721 3.73333 7.46615 3.97227 7.46615 4.26667ZM7.46615 6.4C7.46615 6.6944 7.22721 6.93333 6.93281 6.93333H2.66615C2.37175 6.93333 2.13281 6.6944 2.13281 6.4C2.13281 6.1056 2.37175 5.86667 2.66615 5.86667H6.93281C7.22721 5.86667 7.46615 6.1056 7.46615 6.4ZM13.8661 8.53333C13.8661 8.82773 13.6277 9.06667 13.3328 9.06667H2.66615C2.37175 9.06667 2.13281 8.82773 2.13281 8.53333C2.13281 8.23893 2.37175 8 2.66615 8H13.3328C13.6277 8 13.8661 8.23893 13.8661 8.53333ZM13.8661 10.6667C13.8661 10.9616 13.6277 11.2 13.3328 11.2H2.66615C2.37175 11.2 2.13281 10.9616 2.13281 10.6667C2.13281 10.3717 2.37175 10.1333 2.66615 10.1333H13.3328C13.6277 10.1333 13.8661 10.3717 13.8661 10.6667ZM13.8661 12.8C13.8661 13.0949 13.6277 13.3333 13.3328 13.3333H2.66615C2.37175 13.3333 2.13281 13.0949 2.13281 12.8C2.13281 12.5051 2.37175 12.2667 2.66615 12.2667H13.3328C13.6277 12.2667 13.8661 12.5051 13.8661 12.8ZM13.8661 14.9333C13.8661 15.2283 13.6277 15.4667 13.3328 15.4667H2.66615C2.37175 15.4667 2.13281 15.2283 2.13281 14.9333C2.13281 14.6384 2.37175 14.4 2.66615 14.4H13.3328C13.6277 14.4 13.8661 14.6384 13.8661 14.9333Z" fill="#99AAB5"/>
</svg>
