<svg width="18" height="18" viewBox="0 0 18 18" fill="none" xmlns="http://www.w3.org/2000/svg">
<path d="M16 17C16 17.552 15.552 18 15 18H3C2.448 18 2 17.552 2 17V3.5C2 2.948 2.448 2.5 3 2.5H15C15.552 2.5 16 2.948 16 3.5V17Z" fill="#C1694F"/>
<path d="M14.5 16C14.5 16.2765 14.2765 16.5 14 16.5H4C3.724 16.5 3.5 16.2765 3.5 16V4.5C3.5 4.224 3.724 4 4 4H14C14.2765 4 14.5 4.224 14.5 4.5V16Z" fill="white"/>
<path d="M12.5 1.5H10.5C10.5 0.6715 9.8285 0 9 0C8.1715 0 7.5 0.6715 7.5 1.5H5.5C4.948 1.5 4.5 1.948 4.5 2.5V5H13.5V2.5C13.5 1.948 13.052 1.5 12.5 1.5Z" fill="#CCD6DD"/>
<path d="M9 2.5C9.55228 2.5 10 2.05228 10 1.5C10 0.947715 9.55228 0.5 9 0.5C8.44772 0.5 8 0.947715 8 1.5C8 2.05228 8.44772 2.5 9 2.5Z" fill="#292F33"/>
<path d="M10 7C10 7.276 9.7765 7.5 9.5 7.5H5C4.724 7.5 4.5 7.276 4.5 7C4.5 6.724 4.724 6.5 5 6.5H9.5C9.7765 6.5 10 6.724 10 7ZM13.5 9C13.5 9.276 13.2765 9.5 13 9.5H5C4.724 9.5 4.5 9.276 4.5 9C4.5 8.724 4.724 8.5 5 8.5H13C13.2765 8.5 13.5 8.724 13.5 9ZM13.5 11C13.5 11.2765 13.2765 11.5 13 11.5H5C4.724 11.5 4.5 11.2765 4.5 11C4.5 10.7235 4.724 10.5 5 10.5H13C13.2765 10.5 13.5 10.7235 13.5 11ZM13.5 13C13.5 13.2765 13.2765 13.5 13 13.5H5C4.724 13.5 4.5 13.2765 4.5 13C4.5 12.7235 4.724 12.5 5 12.5H13C13.2765 12.5 13.5 12.7235 13.5 13ZM13.5 15C13.5 15.2765 13.2765 15.5 13 15.5H8.5C8.224 15.5 8 15.2765 8 15C8 14.7235 8.224 14.5 8.5 14.5H13C13.2765 14.5 13.5 14.7235 13.5 15Z" fill="#99AAB5"/>
</svg>
