<svg width="18" height="18" viewBox="0 0 18 18" fill="none" xmlns="http://www.w3.org/2000/svg">
<path d="M17 7.5H15.319C15.157 6.8155 14.887 6.1745 14.528 5.593L15.7175 4.4035C16.108 4.013 16.108 3.3795 15.7175 2.989L15.0105 2.282C14.62 1.8915 13.987 1.8915 13.5965 2.282L12.407 3.4715C11.825 3.1125 11.1845 2.843 10.5 2.681V1C10.5 0.448 10.052 0 9.5 0H8.5C7.948 0 7.5 0.448 7.5 1V2.681C6.8155 2.843 6.1745 3.113 5.593 3.472L4.404 2.2825C4.0135 1.892 3.38 1.892 2.99 2.2825L2.2825 2.9895C1.892 3.38 1.892 4.0135 2.282 4.404L3.4715 5.5935C3.1125 6.175 2.843 6.816 2.681 7.5H1C0.448 7.5 0 7.948 0 8.5V9.5C0 10.052 0.448 10.5 1 10.5H2.681C2.843 11.184 3.113 11.825 3.472 12.4065L2.2825 13.596C1.8925 13.986 1.8925 14.62 2.283 15.0105L2.99 15.7175C3.38 16.1075 4.0135 16.1075 4.404 15.7175L5.5935 14.528C6.175 14.8875 6.816 15.157 7.5005 15.319V17C7.5005 17.552 7.9485 18 8.5005 18H9.5005C10.0525 18 10.5005 17.552 10.5005 17V15.319C11.1845 15.157 11.8255 14.887 12.407 14.528L13.5965 15.7175C13.987 16.108 14.62 16.108 15.0105 15.7175L15.7175 15.0105C16.108 14.62 16.108 13.9865 15.7175 13.596L14.528 12.4065C14.8875 11.825 15.157 11.184 15.319 10.4995H17C17.552 10.4995 18 10.0515 18 9.4995V8.4995C18 7.948 17.552 7.5 17 7.5ZM9 13C6.791 13 5 11.209 5 9C5 6.791 6.791 5 9 5C11.209 5 13 6.791 13 9C13 11.209 11.209 13 9 13Z" fill="#66757F"/>
</svg>
