<svg width="18" height="18" viewBox="0 0 18 18" fill="none" xmlns="http://www.w3.org/2000/svg">
<path d="M15.5 11H5.5L4.5 5H16.5L15.5 11Z" fill="#CCD6DD"/>
<path d="M16.492 13.5H5.492C4.945 13.5 4.5 13.0545 4.5 12.508C4.5 11.9615 4.953 11.5 5.5 11.5L5.5035 11.4995L5.5075 11.5H15.5C15.7445 11.5 15.953 11.323 15.993 11.082L16.993 5.082C17.0175 4.937 16.9765 4.789 16.881 4.6765C16.7865 4.5645 16.647 4.5 16.5 4.5H4.9085L4.3885 1.417C4.349 1.1805 4.1465 1.021 3.9175 1.01C3.9095 1.0085 3.904 1 3.896 1H1.5C1.224 1 1 1.224 1 1.5C1 1.776 1.224 2 1.5 2H3.473L4.9245 10.608C4.1035 10.8545 3.5 11.608 3.5 12.508C3.5 13.6065 4.394 14.5 5.492 14.5H16.492C16.7685 14.5 16.992 14.2765 16.992 14C16.992 13.7235 16.7685 13.5 16.492 13.5ZM15.41 8.5H13.7565L13.893 7.5H15.576L15.41 8.5ZM12.747 8.5H11V7.5H12.8835L12.747 8.5ZM10 8.5H8.253L8.1165 7.5H10V8.5ZM7.244 8.5H5.5905L5.424 7.5H7.1075L7.244 8.5ZM5.9235 10.5L5.757 9.5H7.3805L7.517 10.5H5.9235ZM8.5265 10.5L8.39 9.5H10V10.5H8.5265ZM11 10.5V9.5H12.61L12.4735 10.5H11ZM13.4835 10.5L13.62 9.5H15.2435L15.077 10.5H13.4835ZM15.9095 5.5L15.743 6.5H14.03L14.1665 5.5H15.9095ZM13.157 5.5L13.0205 6.5H11V5.5H13.157ZM10 5.5V6.5H7.9795L7.843 5.5H10ZM6.8335 5.5L6.97 6.5H5.2565L5.09 5.5H6.8335Z" fill="#66757F"/>
<path d="M7 17C7.82843 17 8.5 16.3284 8.5 15.5C8.5 14.6716 7.82843 14 7 14C6.17157 14 5.5 14.6716 5.5 15.5C5.5 16.3284 6.17157 17 7 17Z" fill="#E1E8ED"/>
<path d="M7 17.5C5.897 17.5 5 16.603 5 15.5C5 14.397 5.897 13.5 7 13.5C8.103 13.5 9 14.397 9 15.5C9 16.603 8.103 17.5 7 17.5ZM7 14.5C6.4485 14.5 6 14.9485 6 15.5C6 16.0515 6.4485 16.5 7 16.5C7.5515 16.5 8 16.0515 8 15.5C8 14.9485 7.5515 14.5 7 14.5Z" fill="#292F33"/>
<path d="M14 17C14.8284 17 15.5 16.3284 15.5 15.5C15.5 14.6716 14.8284 14 14 14C13.1716 14 12.5 14.6716 12.5 15.5C12.5 16.3284 13.1716 17 14 17Z" fill="#E1E8ED"/>
<path d="M14 17.5C12.897 17.5 12 16.603 12 15.5C12 14.397 12.897 13.5 14 13.5C15.103 13.5 16 14.397 16 15.5C16 16.603 15.103 17.5 14 17.5ZM14 14.5C13.4485 14.5 13 14.9485 13 15.5C13 16.0515 13.4485 16.5 14 16.5C14.5515 16.5 15 16.0515 15 15.5C15 14.9485 14.5515 14.5 14 14.5Z" fill="#292F33"/>
</svg>
